<?xml version="1.0" encoding="UTF-8"?><svg id="_レイヤー_1" xmlns="http://www.w3.org/2000/svg" viewBox="0 0 223.37 27.09"><defs><style>.cls-1{fill:#231815;}</style></defs><path class="cls-1" d="M7.07,8.72c-1.28,.59-2.17,1.12-2.86,1.66-.48,.38-.83,.74-1.23,1.14-.66,.67-1.31,2.66-1.29,3.59,.02,.72,.31,2.11,1.04,2.93,.19,.22,1.16,.97,2.04,1.26,.57,.19,1.5,.43,2.11,.43,.4,0,1.26-.07,1.92-.22,.43-.05,1.05-.29,1.19-.29,.33,0,.71-.28,.93-.36,.21-.09,.36-.12,.45-.12,.14,0,.19,.07,.21,.19,.02,.03,.02,.05,.02,.09,0,.24-.19,.38-.45,.52-1.04,.57-2.54,1.09-4.18,1.07-1.35-.02-2.02-.21-3.47-.67-.12-.03-.67-.4-1.03-.53-.31-.12-.62-.38-.83-.59-.78-.78-1.14-1.45-1.38-2.07-.1-.26-.24-1.17-.24-1.48v-.31c0-.17,.02-.38,.07-.66,.07-.31,.05-.66,.07-.72,.03-.14,.09-.22,.09-.36,.02-.12-.03-.17,.16-.45,.09-.48,.22-.85,.26-.9,0,0,.14-.36,.17-.38,.12-.09,.17-.21,.26-.33,.17-.24,.41-.52,.57-.76,.22-.28,1.1-1.24,1.5-1.48l.47-.29,.52-.41,.19-.21c.21-.22,1.28-.86,1.59-1.04,.34-.19,.79-.41,.98-.41,.17,0,.33,.09,.43,.26l.16,.24c.05,.05,.26,.22,.43,.34,.04,.02,.07,.05,.07,.1l.03,.21c0,.05,.05,.1,.07,.14,.07,.09,.09,.16,.09,.24,0,.12-.12,.21-.26,.28l-.83,.38Z"/><path class="cls-1" d="M14.83,18.05l.03,.81c0,.16,.16,.62,.16,1.02,0,.26-.07,.48-.29,.55-.41,.12-.6,.12-.81,.12-.31,0-.6-.02-.66-.14-.36-1.1-.4-3.3-.41-3.45,0-.09,0-.16,.02-.22v-.05s0-.05-.02-.09c-.02-.02-.03-.17-.03-.28v-.09c.07-.16,.09-.21,.09-.33-.02-.09-.03-.24-.03-.26,0-.07-.1-1.09-.1-1.17-.09-1.07-.12-2.12-.14-2.67l-.09-2.47-.05-.12s-.02-.07-.02-.1l.05-.5v-.26c0-.16-.04-.33-.24-.48-.21-.14-.38-.34-.38-.64,0-.31,.19-.6,.76-.67,.14-.02,.4-.03,.66-.03,.29,0,.55,.05,.67,.07,.24,.03,.41,.26,.41,.5l.02,3.16,.12,2.93c0,.14,.02,.74,.05,1.47,.03,.14,.16,.21,.24,.21,.29-.02,.64-.02,.76-.02l.34,.05,.22-.03h.1l.19,.03,.09-.03s.07-.03,.1-.03l.09,.02c.09,0,.38-.17,.64-.31,.31-.17,.41-.24,.76-.24,.22,0,.45,.07,.62,.28,.16,.14,.36,.34,.36,.62,0,.26-.21,.4-.5,.4l-3.73-.05c-.14,.02-.22,.1-.24,.24,.03,.69,.05,1.28,.07,1.43l.12,.85Zm6.97-7.42v.12c0,.14-.43,2.97-.55,3.64-.05,.28-.19,1.16-.19,1.36v.05c0,.09-.09,.26-.12,.34-.03,.07-.03,.19-.03,.31,0,.9-.28,1.69-.36,2.16-.05,.31-.24,.86-.45,1.45-.14,.38-.24,.47-.69,.47-.14,0-.4-.07-.59-.22-.14-.12-.19-.26-.19-.36,0-.16,.16-.21,.34-.21,.14,0,.24-.02,.29-.03,.04,0,.07-.02,.09-.05,.03-.02,.03-.05,.05-.09,.03-.19,.09-.41,.09-.66v-.48l.07-.5,.02-.12,.03-.12,.05-.59,.14-2.67c0-.14,.09-2.02,.09-2.21l-.02-1.61c0-.29,.05-1.36,.05-1.57,.02-.19,.1-.31,.22-.4,.19-.16,.43-.19,.79-.19,.78,0,1.1,.17,1.1,.33,0,.09-.05,.36-.09,.69l-.09,.72,.02,.14s.02,.03,.02,.05,0,.03-.02,.05l-.09,.19Z"/><path class="cls-1" d="M23.79,16.08l-.02-.09v-.1c.05-.09,.04-.97,.04-1.07l-.04-3.24c0-.47,.04-1.88,.05-2.23,0,0-.02-.59,.02-.71,.03-.1,.09-.26,.09-.41,0-.12-.04-.24-.16-.29-.29-.14-.71-.31-.71-.69,0-.48,.86-.67,1-.69,.1-.02,.31-.03,.55-.03,.36,0,.66,.05,.78,.07,.24,.03,.41,.28,.41,.5l-.09,.86c-.09,.91-.1,2.59-.1,3.54v3.81c0,.47,.07,3.23,.1,3.55,.05,.4,.07,.69,.07,.91,0,.41-.09,.59-.29,.66-.14,.05-.57,.12-.9,.12h-.19c-.21,0-.36-.03-.4-.24-.12-.91-.17-1.64-.19-2.1-.02-.33-.02-.97-.02-1.31,0-.12,0-.21-.04-.38v-.1l.02-.22v-.1Z"/><path class="cls-1" d="M28.35,8.61c-.09,.03-.16,.09-.26,.16-.09,.07-.17,.14-.26,.22-.02,.02-.05,.03-.07,.07-.12,.05-.28,.12-.41,.12h-.07c-.41-.09-.45-.48-.45-.62,0-.21,.26-.36,.38-.41,2.14-.91,3.62-1.12,5.31-1.12,1.59,0,1.85,.05,3.09,.38,.38,.1,.93,.34,1.33,.59,.1,.07,.19,.12,.26,.21,.03,.02,.03,.05,.07,.09,.02,.03,.05,.05,.1,.09,.07,.03,.21,.05,.29,.16,.31,.29,.69,.88,.69,1.52,0,.74-.36,1.26-.85,1.69-.57,.52-1.36,.79-2.07,1.1-.28,.12-1.19,.43-1.54,.5-.14,.03-.19,.03-.29,.03l-.52,.12c-.4,.09-1.05,.1-1.16,.1-.33,0-.5-.12-.5-.33,0-.16,.22-.24,.74-.34,.59-.12,1.64-.43,2-.64,.03-.02,.07-.02,.1-.03,.12-.03,.26-.09,.38-.14,.28-.14,.83-.5,1.05-.71,.38-.31,.6-.74,.6-1.4,0-.85-.71-1.4-.91-1.48l-.41-.16s-.07-.03-.09-.05c-.17-.14-.83-.59-2.57-.59h-.36c-.81,0-1.98,.33-2.54,.55l-.17,.07s-.07,.02-.1,.02l-.16,.02c-.09,.02-.21,.05-.26,.09-.1,.07-.14,.09-.19,.1l-.21,.03Zm-.22,7.49l.05-.85c.05-.81,.26-2.14,.43-2.97,.09-.45,.5-1.93,.64-2.28,.09-.22,.22-.52,.48-.52,.22,0,.28,.16,.28,.36,0,.14-.03,.31-.03,.43-.02,.29-.1,1.6-.1,2.66v1.38c0,.6,.02,1.17,.02,1.54v.55c0,.47,.02,1.07,.05,1.41,.02,.24,.03,.54,.09,.81,.03,.17,.07,.26,.16,.26,.03,0,.05,0,.09-.02,.21-.05,.33-.07,.41-.07,.12,0,.28,.04,.29,.21v.05c0,.21-.14,.41-.22,.53-.28,.45-.9,.93-1.48,.93-.74,0-.95-.22-1.04-.74-.05-.36-.1-.79-.1-.95v-2.74Z"/><path class="cls-1" d="M39.45,13.86l-.19-.12c-.29-.19-.9-.81-.9-1.69,0-1.33,.93-2.35,1.54-2.86,.12-.12,.26-.24,.36-.38,.03-.02,.05-.05,.07-.07,.17-.16,.34-.24,.55-.31,.17-.05,.31-.16,.48-.29,.28-.22,.57-.48,1.03-.72,.5-.28,1.73-.91,1.93-.91,.16,0,.29,.12,.36,.26l.14,.24c.16,.16,.31,.33,.38,.41,.03,.03,.03,.07,.03,.1l.03,.24c.04,.09,.12,.28,.12,.34,0,.1-.1,.21-.24,.26-.57,.21-1.36,.55-1.54,.64-.21,.09-.34,.16-.48,.21-.12,.03-.16,.03-.24,.09-.22,.16-.9,.53-1,.59-.91,.47-1.88,1.05-1.85,2.16,.02,.48,.19,.72,.47,.98,.02,.02,.03,.05,.05,.09l.02,.1c.02,.05,.1,.16,.17,.19l.19,.1s.07,.05,.09,.07l.16,.19c.16,.21,1.47,.88,1.79,1.03,.69,.33,2.36,.91,2.98,1.73,.19,.24,.45,.6,.45,1.21,0,.76-.55,1.29-1,1.71-.4,.36-.93,.71-1.36,.93-.26,.14-.6,.24-.93,.24-.14,0-.4-.1-.4-.33,0-.17,.21-.29,.31-.38,.21-.17,.43-.48,.57-.66,.41-.54,.83-1.14,.83-1.97s-.88-1.47-1.76-1.85c-.21-.09-.41-.14-.59-.19-.6-.19-1.02-.34-1.28-.48-.52-.26-.86-.43-1.16-.66-.02-.03-.05-.05-.07-.07l-.14-.17Z"/><path class="cls-1" d="M51.79,4.88c-.24,0-.26,.11-.28,.31-.03,.23-.28,.49-.57,.49-.24,0-.25-.11-.25-.23,0-.06,.03-.36,.04-.43,.02-.33,.02-1.16,.02-1.39,0-.55-.02-1.12-.06-1.58,0-.04-.03-.29-.03-.31,0-.03,0-.06,.03-.06,.09,0,.16,.03,.74,.31,.18,.09,.3,.12,.53,.12h1.62c.29,0,.29-.16,.29-.32,0-.26,0-1.06-.03-1.3,0-.05-.06-.27-.06-.32s.06-.05,.1-.05c.07,0,.96,.13,.96,.3,0,.05-.2,.23-.21,.27-.04,.15-.04,.22-.04,1.15,0,.13,0,.29,.27,.29h1.81c.11,0,.2,0,.3-.12,.19-.23,.2-.25,.29-.25,.14,0,.83,.45,.83,.56,0,.05-.21,.22-.24,.26-.08,.12-.08,.23-.08,1.1,0,.17,.03,1.05,.03,1.25,0,.18,0,.29-.1,.4-.19,.21-.43,.23-.48,.23-.27,0-.27-.21-.27-.43,0-.08,0-.24-.28-.24h-1.75c-.18,0-.31,.02-.31,.29,0,.31,.02,1.82,.02,2.16,0,.18,0,.69-.52,.69-.32,0-.32-.26-.32-.35,0-.1,.04-.54,.04-.65,0-.31,.03-1.54,.03-1.84,0-.21-.03-.31-.29-.31h-1.75Zm1.76-.24c.08,0,.2,0,.25-.11,.06-.11,.06-1.21,.06-1.43,0-.7,0-.77-.3-.77h-1.81c-.28,0-.28,.1-.28,.41,0,.22,.02,1.3,.02,1.56s.05,.33,.3,.33h1.76Zm3.16,0c.09,0,.22,0,.25-.13,.02-.06,.05-1.72,.05-1.88,0-.21-.09-.29-.28-.29h-1.88c-.28,0-.28,.17-.28,.3,0,.23,0,1.74,.03,1.85,.03,.13,.14,.16,.26,.16h1.85Z"/><path class="cls-1" d="M63.12,4.62s-.15,0-.15,.09,.35,.8,.96,1.28c.28,.22,1.1,.82,2.79,1.1,.03,0,.32,.05,.32,.08,0,.03-.2,.11-.24,.12-.15,.09-.42,.26-.54,.38-.02,.03-.11,.22-.16,.22s-2.38-.54-3.25-3.03c-.07-.2-.08-.23-.11-.23s-.04,.04-.04,.07c-.08,.53-.23,.86-.33,1.05-.76,1.52-3.2,2.19-3.87,2.19-.02,0-.07,0-.07-.03,0-.03,.02-.04,.2-.09,.6-.18,1.91-.7,2.77-1.69,.51-.59,.62-1.27,.62-1.34,0-.17-.13-.17-.23-.17h-1.99c-.23,0-.9,0-1.24,.03-.03,0-.18,.02-.2,.02s-.05-.02-.09-.05l-.19-.2s-.04-.04-.04-.06,.02-.02,.03-.02c.2,0,1.15,.06,1.36,.06,.13,0,.23-.04,.25-.17,0-.03,0-1.1,0-1.25,0-.4,0-1.02-.02-1.2,0-.04-.04-.22-.04-.28,0-.05,.02-.1,.1-.1,.11,0,.26,.08,.57,.22,.17,.08,.24,.09,.42,.09h1.11c.24,0,.31-.05,.31-.23,0-.07-.02-.46-.07-.87,0-.07-.1-.43-.1-.52,0-.07,.04-.09,.12-.09,.1,0,.48,.09,.71,.15,.29,.08,.38,.1,.38,.23,0,.06-.05,.11-.2,.19-.18,.1-.18,.15-.18,.64,0,.39,0,.49,.32,.49h1.15c.14,0,.23,0,.35-.14,.13-.14,.17-.19,.24-.19,.12,0,.64,.31,.64,.45,0,.02,0,.04-.02,.07s-.15,.11-.21,.14c-.06,.07-.06,.27-.06,2,0,.21,0,.37,.23,.37,.18,0,.29-.14,.36-.25,.1-.17,.16-.26,.29-.26,.13,0,.8,.44,.8,.6,0,.15-.15,.15-.53,.15h-3.29Zm-1.28-.23c.08,0,.22,0,.27-.16,.03-.11,.09-1.26,.09-2,0-.29-.11-.31-.33-.31h-1.17c-.16,0-.27,.02-.3,.18,0,.04,0,1.86,0,1.98,0,.25,.09,.31,.32,.31h1.13Zm2.47,0c.31,0,.31-.15,.31-.32v-1.92c0-.22-.19-.22-.31-.22h-1.16c-.2,0-.29,.04-.29,.27,0,.32,0,.89,0,1.02,0,.2-.07,.84-.07,.94,0,.21,.13,.22,.3,.22h1.23Z"/><path class="cls-1" d="M68.94,3.12c-.86,0-1.13,.02-1.23,.03-.04,0-.18,.02-.2,.02-.04,0-.06-.02-.09-.05l-.19-.2s-.05-.04-.05-.06,.02-.02,.04-.02c.07,0,.37,.03,.43,.03,.48,.02,.88,.04,1.34,.04h1.69c.3,0,.33,0,.33-1.23,0-.21,0-.67-.06-1.21,0-.05-.04-.25-.04-.3s0-.07,.06-.07c.16,0,.89,.17,1.01,.2,.13,.03,.21,.07,.21,.16,0,.07-.05,.12-.16,.2-.18,.14-.18,.18-.2,.59,0,.23-.08,1.24-.08,1.45s.18,.2,.33,.2h1.69c.45,0,.5,0,.62-.15,.31-.36,.35-.39,.47-.39,.21,0,.99,.56,.99,.65,0,.12-.19,.12-.52,.12h-3.11c-.21,0-.28,0-.28,.14,0,.53,1.27,3.13,4.03,4.1q.26,.1,.26,.13c0,.06-.05,.07-.2,.08-.3,.02-.56,.04-.88,.17-.05,.03-.26,.16-.32,.16-.18,0-1.04-.7-1.56-1.36-.71-.91-1.23-1.9-1.52-2.97,0-.05-.05-.17-.07-.17-.03,0-.03,.03-.07,.21-.2,.98-.56,2.8-3.07,4.06-.72,.37-1.37,.47-1.45,.47-.02,0-.06,0-.06-.04,0-.04,.21-.13,.31-.17,.68-.29,2.72-1.36,3.39-3.73,.11-.39,.16-.86,.16-.88,0-.19-.11-.19-.26-.19h-1.71Z"/><path class="cls-1" d="M83.25,2.32c.38,0,.5,0,.62-.15,.11-.13,.13-.16,.23-.16,.2,0,.93,.55,.93,.75,0,.1-.13,.14-.2,.14-.03,0-.3-.04-.34-.04-.23,0-.53,.08-1.02,.44-.08,.05-.13,.09-.18,.09-.02,0-.04-.02-.04-.03,0-.1,.33-.6,.33-.68,0-.11-.13-.12-.26-.12h-5.78c-.18,0-.26,0-.31,.17-.13,.4-.24,.85-.63,.85-.2,0-.36-.16-.36-.34s.05-.25,.35-.62c.17-.2,.19-.26,.28-.7,0-.03,.03-.1,.08-.1,.09,0,.17,.16,.27,.38,.06,.12,.19,.12,.28,.12h5.74Zm-3.28,3.12c.12,0,.3,0,.3-.23,0-.11,0-.31-.03-.41-.03-.13-.07-.31-.07-.34,0-.03,0-.14,.11-.14,.09,0,.5,.11,.58,.11,.21,0,.96-.65,.96-.74,0-.06-.05-.06-.19-.06h-2.29c-.23,0-.9,0-1.23,.03-.04,0-.18,.02-.21,.02-.03,0-.05-.02-.08-.05l-.19-.2s-.04-.04-.04-.06,.02-.02,.03-.02c.07,0,.36,.03,.43,.03,.28,.02,.79,.03,1.35,.03h2.2c.44,0,.48,0,.62-.15,.1-.11,.16-.14,.24-.14,.13,0,.61,.45,.61,.58s-.09,.15-.38,.21c-.41,.08-1.14,.46-1.62,.7-.13,.07-.15,.08-.15,.6,0,.24,.21,.24,.31,.24h1.69c.4,0,.54,0,.62-.15,.19-.3,.21-.37,.4-.37,.21,0,.9,.51,.9,.63,0,.11-.19,.11-.52,.11h-3.11c-.28,0-.28,.07-.28,.52,0,.66,0,1.14-.05,1.37-.07,.37-.41,.51-.79,.51-.14,0-.15-.05-.19-.16-.08-.24-.38-.35-.79-.51-.12-.04-.22-.08-.22-.13,0-.04,.06-.04,.09-.04,.02,0,.82,.11,.97,.11,.17,0,.28,0,.29-.45,0-.19,.02-.81,.02-.95,0-.15-.03-.27-.3-.27h-1.87c-.23,0-.9,0-1.24,.03-.03,0-.17,.02-.2,.02-.03,0-.05-.02-.09-.05l-.18-.2s-.04-.04-.04-.06,.02-.02,.03-.02c.07,0,.36,.03,.43,.03,.28,0,.79,.03,1.34,.03h1.81Zm-2.35-5.08c.2,0,1.41,.41,1.41,1.2,0,.17-.12,.33-.33,.33-.24,0-.28-.07-.57-.63-.2-.37-.22-.4-.57-.81,0-.02-.04-.06-.03-.08,0-.02,.07-.02,.09-.02Zm3.54,.97c0,.26-.18,.45-.36,.45-.3,0-.36-.33-.4-.52-.06-.32-.24-.83-.33-.99,0-.03-.08-.15-.05-.18,.09-.09,1.14,.52,1.14,1.23Zm2.67-.53c0,.08-.04,.09-.21,.13-.17,.04-.21,.08-.59,.43-.6,.54-1.02,.82-1.08,.82-.02,0-.04-.02-.04-.03,0,0,.34-.57,.38-.64,.11-.19,.44-.77,.5-1.15,.03-.17,.04-.19,.1-.19s.14,.04,.18,.07c.25,.14,.77,.42,.77,.56Z"/><path class="cls-1" d="M147.28,12.16c.55,0,.72,0,.9-.24,.16-.21,.18-.25,.34-.25,.3,0,1.34,.89,1.34,1.21,0,.16-.18,.23-.28,.23-.04,0-.44-.07-.49-.07-.34,0-.76,.13-1.48,.71-.11,.09-.18,.14-.25,.14-.03,0-.06-.03-.06-.06,0-.16,.48-.97,.48-1.1,0-.18-.18-.2-.38-.2h-8.37c-.25,0-.38,0-.45,.28-.18,.65-.35,1.37-.92,1.37-.3,0-.52-.25-.52-.55s.07-.4,.51-1c.24-.32,.27-.42,.41-1.13,.01-.04,.04-.16,.11-.16,.13,0,.24,.25,.4,.62,.08,.2,.27,.2,.41,.2h8.32Zm-4.76,5.03c.17,0,.44,0,.44-.37,0-.17-.01-.49-.04-.66-.04-.21-.1-.49-.1-.55,0-.04,0-.23,.16-.23,.13,0,.72,.18,.85,.18,.31,0,1.38-1.05,1.38-1.2,0-.1-.07-.1-.27-.1h-3.32c-.34,0-1.3,0-1.78,.04-.06,0-.25,.03-.31,.03-.04,0-.07-.03-.11-.09l-.28-.32q-.06-.07-.06-.1s.03-.03,.04-.03c.1,0,.52,.04,.62,.04,.41,.03,1.14,.06,1.95,.06h3.19c.64,0,.69,0,.9-.24,.14-.17,.23-.23,.35-.23,.18,0,.89,.72,.89,.93s-.13,.24-.55,.34c-.59,.13-1.65,.73-2.34,1.13-.18,.11-.21,.13-.21,.97,0,.38,.31,.38,.45,.38h2.44c.58,0,.78-.01,.9-.24,.27-.48,.31-.59,.58-.59,.31,0,1.3,.82,1.3,1.02,0,.18-.28,.18-.75,.18h-4.5c-.41,0-.41,.11-.41,.83,0,1.06-.01,1.84-.07,2.22-.1,.59-.59,.82-1.14,.82-.2,0-.21-.08-.27-.25-.11-.38-.55-.56-1.14-.82-.17-.07-.32-.13-.32-.21,0-.07,.08-.07,.13-.07,.03,0,1.19,.17,1.41,.17,.24,0,.41,0,.42-.72,0-.31,.03-1.31,.03-1.53,0-.24-.04-.44-.44-.44h-2.71c-.34,0-1.3,0-1.79,.04-.04,0-.24,.03-.3,.03-.04,0-.07-.03-.13-.09l-.27-.32q-.06-.07-.06-.1s.03-.03,.04-.03c.1,0,.52,.04,.62,.04,.41,.01,1.14,.06,1.95,.06h2.63Zm-3.4-8.19c.28,0,2.05,.66,2.05,1.93,0,.27-.17,.54-.48,.54-.35,0-.41-.11-.83-1.02-.28-.59-.32-.65-.82-1.3-.01-.03-.06-.1-.04-.13,.01-.03,.1-.03,.13-.03Zm5.13,1.57c0,.42-.25,.72-.52,.72-.44,0-.52-.54-.58-.83-.09-.52-.35-1.34-.48-1.6-.01-.04-.11-.24-.07-.28,.13-.14,1.65,.83,1.65,1.99Zm3.87-.85c0,.13-.06,.14-.31,.21-.24,.06-.31,.13-.86,.69-.88,.88-1.48,1.33-1.57,1.33-.03,0-.06-.03-.06-.06,0-.01,.49-.92,.55-1.03,.16-.31,.64-1.24,.72-1.85,.04-.27,.06-.31,.14-.31s.2,.07,.27,.11c.37,.23,1.12,.68,1.12,.9Z"/><path class="cls-1" d="M154.94,11.7c.44,0,.44-.17,.44-.88,0-.97-.06-1.4-.08-1.65-.01-.07-.11-.38-.11-.45s.06-.1,.16-.1,1.53,.14,1.53,.49c0,.09-.3,.35-.34,.42-.1,.21-.13,1.33-.13,1.62,0,.37,.01,.54,.45,.54h1.82c.65,0,.72,0,.9-.24,.42-.58,.47-.64,.59-.64,.16,0,1.28,.95,1.28,1.07,0,.18-.32,.18-.75,.18h-3.87c-.16,0-.35,0-.42,.24-.03,.11-.03,2.32-.03,2.73,0,.44,.03,.61,.47,.61h1.4c.66,0,.73,0,.9-.24,.44-.58,.48-.64,.61-.64,.16,0,1.29,.95,1.29,1.07,0,.18-.32,.18-.76,.18h-3.42c-.41,0-.45,.14-.45,.48,0,.42,.01,3.46,.03,3.53,.06,.21,.23,.24,.45,.24h2.58c.65,0,.72,0,.9-.24,.42-.58,.47-.65,.59-.65,.16,0,1.28,.95,1.28,1.07,0,.18-.32,.18-.75,.18h-9.38c-1.24,0-1.65,.03-1.78,.04-.06,0-.25,.03-.31,.03-.04,0-.07-.03-.11-.09l-.28-.32q-.06-.07-.06-.1s.01-.03,.06-.03c.08,0,.52,.04,.62,.04,.69,.03,1.27,.06,1.94,.06h2.7c.25,0,.47,0,.47-.51v-3.4c0-.17-.09-.34-.41-.34h-1.65c-1.24,0-1.65,.03-1.78,.03-.06,.01-.25,.04-.3,.04-.06,0-.09-.04-.13-.1l-.28-.32c-.04-.06-.06-.07-.06-.09,0-.03,.01-.04,.06-.04,.1,0,.52,.04,.62,.06,.69,.03,1.27,.04,1.93,.04h1.57c.42,0,.42-.21,.42-.44v-2.77c-.03-.27-.16-.37-.41-.37h-2.33c-.44,0-.47,.04-.82,.64-.78,1.3-1.74,2.46-1.96,2.46-.06,0-.07-.04-.07-.09,0-.03,.23-.45,.35-.68,1.55-2.87,1.82-4.69,1.86-4.97,.03-.27,.06-.3,.08-.3s1.38,.55,1.38,.79c0,.11-.45,.42-.51,.51-.08,.11-.45,.95-.45,1.07,0,.18,.17,.18,.35,.18h2.09Z"/><path class="cls-1" d="M60.41,10.35c.28,0,.49,0,.71-.3,.4-.55,.44-.62,.59-.62,.17,0,1.51,.95,1.51,1.1,0,.2-.28,.2-.76,.2h-9.26c-1.24,0-1.65,.01-1.79,.03-.04,0-.25,.04-.3,.04s-.07-.04-.13-.1l-.27-.32c-.06-.06-.06-.07-.06-.08,0-.03,.01-.04,.04-.04,.1,0,.54,.06,.62,.06,.69,.04,1.28,.04,1.95,.04h2.58c.42,0,.47-.17,.47-.47,0-.14-.01-.41-.04-.59-.01-.08-.08-.49-.08-.58,0-.11,.04-.13,.16-.13,.2,0,.83,.14,1.06,.2,.16,.04,.34,.07,.34,.23,0,.1-.03,.13-.27,.35-.11,.1-.11,.31-.11,.41,0,.49,.1,.58,.48,.58h2.57Zm-7.53,5.72c-.44,0-.44,.04-.44,1.28,0,.47,.06,2.77,.06,3.29,0,.47-.34,.72-.79,.72-.38,0-.38-.16-.38-.32,0-.31,.06-1.79,.06-2.13,0-.78,0-1.95-.04-2.68-.01-.14-.07-.8-.07-.88,0-.06,.01-.2,.11-.2,.11,0,.86,.4,1.03,.45,.13,.04,.38,.09,.61,.09h7.79c.18,0,.3-.01,.45-.18,.32-.37,.37-.4,.44-.4s1.02,.54,1.02,.82c0,.1-.03,.14-.3,.47-.11,.13-.11,.8-.11,1.02,0,.38,.04,2.26,.04,2.68,0,.31,0,.61-.49,.96-.3,.21-.71,.34-.8,.34-.17,0-.24-.1-.44-.44-.2-.32-.51-.52-.85-.62-.2-.06-.25-.16-.25-.2,0-.06,.1-.06,.16-.06,.14,0,.96,.06,1.14,.06,.52,0,.52-.2,.52-.44,0-.21,.01-1.26,.01-1.5,0-1,0-1.62-.01-1.82-.01-.31-.3-.31-.48-.31h-7.98Zm2.39-1.74c-.18,0-.34,0-.4,.18-.06,.14-.17,.47-.65,.47s-.47-.3-.47-.62c0-.14,.03-.86,.03-1.02,0-.34-.01-1.06-.03-1.37,0-.04-.04-.27-.04-.31,0-.06,0-.16,.11-.16,.06,0,.73,.3,.8,.32,.31,.14,.49,.16,.78,.16h3.11c.24,0,.32-.03,.42-.14,.16-.18,.28-.31,.37-.31,.1,0,.99,.51,.99,.71,0,.08-.32,.38-.35,.47-.03,.09-.04,.34-.04,.42,0,.16,.03,.95,.03,1.13,0,.34-.38,.64-.76,.64-.24,0-.27-.1-.3-.3-.04-.27-.24-.27-.45-.27h-3.15Zm.64,5.22c-.21,0-.32,0-.4,.24-.07,.25-.14,.49-.61,.49-.4,0-.42-.18-.42-.41,0-.17,.04-1.02,.04-1.2,0-.28-.01-.59-.01-.9,0-.08-.06-.56-.06-.66,0-.09,.01-.2,.11-.2,.01,0,.49,.23,.54,.24,.17,.07,.41,.11,.66,.11h1.81c.25,0,.34-.03,.44-.16,.23-.27,.25-.3,.31-.3s1,.44,1,.69c0,.07-.01,.09-.25,.37-.06,.06-.11,.13-.11,.28,0,.13,.03,1.33,.03,1.4,0,.45-.49,.66-.72,.66-.25,0-.28-.11-.32-.39-.01-.13-.13-.27-.41-.27h-1.62Zm-.61-7.2c-.47,0-.47,.17-.47,.58,0,.93,0,1.03,.41,1.03h3.26c.42,0,.42-.03,.42-1.14,0-.23,0-.47-.41-.47h-3.22Zm.64,5.28c-.47,0-.47,.17-.47,.71,0,.71,0,.85,.47,.85h1.6c.45,0,.45-.17,.45-.71,0-.72,0-.85-.45-.85h-1.6Z"/><path class="cls-1" d="M67.16,12.71c.16,0,.41,0,.41-.44,0-.13-.11-.72-.11-.82,0-.07,.07-.14,.21-.14,.04,0,.58,.1,.69,.11,.28,.06,.44,.07,.44,.23,0,.07-.04,.13-.16,.27-.09,.1-.11,.14-.11,.24,0,.4,.07,.55,.45,.55h1.33c.41,0,.42-.25,.42-.47,0-.13-.14-.75-.14-.79,0-.07,.07-.16,.23-.16,.07,0,1.14,.11,1.14,.35q0,.08-.16,.31c-.06,.07-.06,.16-.06,.37,0,.3,.17,.38,.41,.38h.62c.49,0,.68,0,.92-.28,.34-.42,.37-.47,.55-.47,.23,0,1.19,.65,1.19,.92,0,.21-.07,.21-.73,.21h-2.53c-.41,0-.41,.25-.41,.44,0,.21,.01,1.13,0,1.33-.04,.56-.68,.64-.78,.64-.28,0-.31-.16-.31-.3,0-.31-.11-.35-.42-.35h-1.2c-.21,0-.38,.01-.41,.2-.04,.3-.06,.48-.57,.48-.47,0-.47-.31-.47-.42v-1.74c-.06-.27-.3-.27-.41-.27h-1.62c-.4,0-.41,.25-.41,.44,0,2.2-.01,3.9-.89,5.72-.51,1.04-1.31,2.03-1.43,2.03-.04,0-.08-.04-.08-.1,.06-.13,.32-.72,.42-.95,.76-1.86,1.02-3.56,1.02-6.1,0-.58-.01-2.65-.18-3.52-.04-.14-.14-.35-.14-.49,0-.07,.07-.14,.16-.14,.03,0,.85,.31,1.02,.35,.14,.04,.38,.08,.64,.08h2.61c.27,0,.42-.1,.42-.37,0-.23-.06-.52-.1-.72-.01-.1-.13-.54-.13-.58,0-.09,.08-.14,.17-.14,.03,0,.72,.13,.83,.14,.55,.1,.61,.1,.61,.27,0,.09-.03,.11-.16,.27-.1,.11-.16,.18-.16,.73,0,.4,.27,.4,.42,.4h2.33c.54,0,.65,0,.89-.34,.13-.17,.35-.49,.55-.49,.17,0,1.21,.72,1.21,1,0,.21-.08,.21-.75,.21h-8.87c-.17,0-.42,0-.42,.38,0,1.51,0,1.53,.42,1.53h1.57Zm-1.05,3.47c-.06-.06-.06-.07-.06-.1s.01-.03,.06-.03c.1,0,.52,.04,.62,.04,.69,.03,1.27,.06,1.93,.06h2.67c.3,0,.42,0,.61-.14,.1-.07,.51-.45,.62-.45,.27,0,1.02,.68,1.02,.88,0,.23-.27,.32-.49,.39-.25,.09-.34,.18-1.16,.99-.65,.64-.78,.75-.93,.89-.04,.04-.17,.13-.17,.24,0,.18,.92,.47,1.21,.56,.47,.14,1.64,.52,3.45,.52,.21,0,.34,0,.34,.07,0,.04-.58,.44-.68,.52-.1,.08-.48,.51-.56,.59-.06,.06-.14,.07-.23,.07-.17,0-1.86-.32-3.62-1.34-.1-.06-.68-.4-.75-.4-.13,0-1.06,.55-1.26,.65-.38,.17-1.86,.88-4.22,.88-.13,0-.27-.03-.27-.11s.27-.13,.41-.14c1.96-.28,3.09-.89,3.43-1.07,.27-.14,1.13-.62,1.13-.8,0-.06-.71-.89-.83-1.07-.11-.17-.55-.99-.65-1.16-.06-.1-.17-.18-.38-.18-.13,0-.75,.06-.83,.06-.06,0-.08-.03-.13-.09l-.28-.32Zm2.49,.34c-.37,0-.49,0-.49,.18,0,.34,1.24,1.79,1.71,1.79,.34,0,1.71-1.61,1.71-1.84,0-.14-.11-.14-.23-.14h-2.7Zm.4-3.43c-.3,0-.4,.13-.4,.45,0,.75,0,.93,.41,.93h1.3c.42,0,.42-.17,.42-.78,0-.38,0-.61-.41-.61h-1.33Z"/><path class="cls-1" d="M76.44,13.12c0,.96-.34,1.82-.93,1.82-.3,0-.48-.24-.48-.47,0-.24,.07-.31,.48-.79,.25-.3,.55-.96,.58-1.61,.01-.14,.06-.21,.1-.21,.17,0,.25,.9,.25,1.26Zm1.79-3.76c-.14,.14-.18,.24-.2,.49-.01,.61-.11,4.99-.11,5.68v5.37c-.04,.37-.64,.52-.79,.52s-.25-.11-.25-.35c0-.32,.08-1.69,.08-1.98,.06-2.05,.16-5.86,.16-7.63,0-.93-.01-1.13-.09-2.27-.01-.14-.03-.41-.03-.42,0-.07,0-.13,.06-.13s.9,.16,1.05,.18c.23,.04,.3,.11,.31,.21,.01,.11-.07,.23-.18,.32Zm1.44,3.25c0,.45-.25,.73-.56,.73-.34,0-.35-.1-.49-1.02-.04-.24-.1-.42-.27-.78-.01-.03-.06-.11-.06-.2,0-.07,.06-.11,.16-.08,.21,.04,1.23,.64,1.23,1.34Zm2.81,.95c.42,0,.42-.1,.42-.97,0-.34-.14-.4-.51-.4-.1,0-1.07,.01-1.44,.04-.04,0-.25,.03-.3,.03-.06,0-.09-.03-.13-.08l-.27-.32c-.06-.06-.07-.07-.07-.1s.04-.03,.06-.03c.07,0,.42,.04,.51,.04,.1,.01,1.57,.06,1.84,.06,.35,0,.35-.21,.35-1.05,0-.35-.3-.35-.44-.35h-.54c-.34,0-1.3,0-1.79,.04-.04,0-.24,.03-.3,.03-.04,0-.07-.03-.13-.09l-.27-.32q-.06-.07-.06-.1s.03-.03,.04-.03c.1,0,.52,.04,.62,.04,.41,.03,1.14,.06,1.95,.06h.48c.41,0,.41-.13,.41-.92,0-.07-.07-.42-.07-.49,0-.04,0-.07,.06-.07,.25,0,.69,.09,1.03,.17,.08,.01,.24,.06,.24,.21,0,.06-.21,.3-.25,.35-.1,.18-.11,.34-.11,.39,0,.35,.3,.35,.42,.35h.88c.59,0,.66,0,.79-.11,.07-.06,.35-.51,.47-.51s.93,.61,.93,.8c0,.18-.28,.18-.75,.18h-2.33c-.42,0-.42,.18-.42,.83,0,.31,0,.57,.41,.57h.58c.59,0,.66,0,.78-.11,.08-.07,.39-.52,.51-.52,.14,0,1.13,.57,1.13,.82,0,.18-.3,.18-.76,.18h-2.23c-.41,0-.41,.21-.41,.75,0,.41,0,.62,.41,.62h1.31c.66,0,.73,0,.9-.24,.28-.38,.31-.42,.45-.42,.21,0,1.02,.71,1.02,.85,0,.18-.28,.18-.76,.18h-5.35c-.34,0-1.3,0-1.79,.04-.04,0-.24,.03-.3,.03-.04,0-.07-.03-.13-.08l-.27-.32q-.06-.07-.06-.1s.03-.03,.04-.03c.1,0,.52,.04,.62,.04,.41,.03,1.14,.06,1.95,.06h.62Zm-.65,5.21c-.18,0-.35,.03-.41,.25-.01,.06-.01,1.41-.01,1.61,0,.45-.25,.73-.71,.73-.24,0-.3-.06-.3-.38,0-.14,.07-.83,.07-.99,.06-1.19,.07-2.5,.07-3.69,0-.21-.04-1.19-.04-1.41,0-.11,.01-.16,.11-.16,.13,0,.69,.24,.82,.25,.17,.06,.32,.07,.48,.07h3.12c.25,0,.35-.08,.42-.16,.18-.21,.23-.24,.34-.24,.1,0,.16,.03,.65,.3,.24,.14,.3,.18,.3,.32,0,.08-.04,.16-.1,.21-.08,.08-.21,.23-.23,.24-.06,.11-.06,1.27-.06,1.53,0,.41,.08,2.46,.08,2.92,0,.78-.92,1.19-1.13,1.19-.07,0-.11-.06-.16-.13-.14-.23-.37-.37-.49-.45-.06-.03-.38-.14-.38-.2s.1-.09,.17-.09c.25-.03,.64-.1,.85-.21,.16-.09,.17-.09,.17-1.2,0-.34-.28-.34-.41-.34h-3.23Zm-.04-1.71c-.37,0-.37,.25-.37,.88,0,.24,0,.45,.41,.45h3.23c.41,0,.41-.21,.41-.48,0-.69,0-.85-.4-.85h-3.29Zm.06-1.61c-.4,0-.4,.24-.4,.65,0,.34,0,.59,.37,.59h3.25c.1,0,.4,0,.4-.34,0-.72,0-.9-.4-.9h-3.22Z"/><path class="cls-1" d="M89.97,12.73c-.32,0-1.3,0-1.79,.04-.04,0-.25,.03-.3,.03s-.07-.03-.13-.08l-.27-.32q-.06-.07-.06-.1s.01-.03,.04-.03c.1,0,.55,.04,.65,.04,.21,.01,1.3,.06,1.57,.06,.66,0,.75,0,.75-.38v-.76c0-.25-.06-.4-.35-.4-.25,0-.93,0-1.24,.04-.03,0-.17,.03-.2,.03-.06,0-.08-.03-.13-.1l-.28-.32c-.04-.06-.06-.07-.06-.08,0-.03,.01-.03,.06-.03,.07,0,.44,.03,.51,.03,.11,0,1.14,.06,1.33,.06,.3,0,.35-.14,.35-.38,0-.21-.11-1.27-.11-1.43,0-.04,0-.06,.04-.06,.07,0,1.26,.24,1.26,.51,0,.07-.2,.34-.23,.4-.07,.11-.07,.45-.07,.61,0,.27,.11,.35,.37,.35,.28,0,.4-.03,.55-.23,.31-.4,.34-.44,.48-.44,.24,0,.99,.68,.99,.85,0,.2-.28,.2-.75,.2h-1.16c-.31,0-.48,0-.48,.37v.8c0,.31,.1,.37,.4,.37,.62,0,.72-.01,.8-.06,.14-.06,.59-.68,.73-.68,.16,0,1.13,.71,1.13,.9s-.28,.2-.76,.2h-3.64Zm-2.27,2.88c-.06-.07-.07-.08-.07-.1,0-.03,.03-.03,.06-.03,.1,0,.55,.04,.64,.04,.41,.01,1.21,.06,1.6,.06h1.09c.41,0,.52,0,.75-1.44,.03-.18,.08-1,.11-1.17,.01-.09,.04-.1,.1-.1,.04,0,1.06,.35,1.06,.72,0,.1-.04,.13-.25,.3-.59,.44-1.07,1.48-1.07,1.55,0,.1,.07,.14,.14,.14,.69,0,.76,0,.93-.24,.3-.41,.32-.45,.44-.45,.21,0,.99,.66,.99,.88,0,.18-.07,.18-.75,.18h-1.74c-.3,0-.42,.04-.42,.39v1.09c.04,.24,.18,.24,.52,.24,.51,0,.64,0,.79-.24,.31-.48,.35-.52,.47-.52,.27,0,1,.82,1,.95,0,.18-.31,.18-.76,.18h-1.5c-.25,0-.52,0-.52,.42,0,.32,.04,1.79,.04,2.08,0,.58-.4,.86-.78,.86-.27,0-.3-.2-.3-.38,0-.3,.08-2.25,.08-2.56,0-.37-.21-.42-.45-.42-.32,0-.8,.01-1.13,.04-.04,0-.24,.03-.28,.03s-.07-.03-.13-.09l-.27-.32s-.06-.07-.06-.1,.01-.03,.04-.03c.31,0,1.65,.1,1.93,.1,.37,0,.37-.06,.37-1.36,0-.37-.14-.37-.78-.37-.27,0-.95,.01-1.2,.04-.04,0-.25,.03-.3,.03-.06,0-.08-.03-.13-.1l-.27-.31Zm1.96-.28c-.34,0-.35-.2-.42-.83-.04-.4-.16-.83-.31-1.2-.01-.06-.04-.13-.04-.16s.03-.04,.07-.04c.09,0,.48,.27,.59,.37,.59,.47,.65,.85,.65,1.27,0,.2-.2,.59-.54,.59Zm8.85-.85c.08,0,.17-.01,.24-.04,.03-.01,.24-.13,.27-.13,.07,0,.92,.49,.92,.76,0,.08-.06,.16-.11,.2-.06,.03-.35,.18-.41,.23-.14,.11-.66,1.33-.79,1.57-.09,.17-.55,.96-.55,1.05,0,.14,.85,1.06,2.09,1.61,.41,.18,.45,.21,.45,.25,0,.07-.09,.08-.11,.08-.3,.01-.52,.03-.93,.21-.07,.03-.41,.25-.51,.25-.14,0-1.06-.92-1.43-1.4-.13-.16-.18-.23-.27-.23-.07,0-.16,.08-.21,.13-.24,.21-.97,.75-1.1,.82-.48,.31-.54,.34-.55,.95-.01,.44-.4,.65-.69,.65-.27,0-.34-.21-.34-.54,0-.1,0-.38,.01-.54,.06-1.16,.11-3.57,.11-4.87,0-1.17,0-4.58-.03-5.51-.01-.11-.06-.65-.06-.76,0-.04,0-.1,.04-.1,.23,0,.65,.21,.78,.27,.3,.14,.34,.14,.56,.14h2.27c.17,0,.2-.01,.32-.16,.35-.41,.39-.45,.49-.45,.3,0,.99,.69,.99,1,0,.11-.03,.14-.28,.32-.16,.11-.16,.47-.16,.99,0,1.23,0,1.54-.23,1.86-.18,.27-.66,.58-.82,.58-.07,0-.14-.04-.18-.09-.06-.06-.27-.37-.31-.44-.17-.18-.64-.57-.64-.62,0-.04,.14-.04,.2-.04,.9,0,1,0,1.05-.41,.03-.24,.03-.83,.03-1.45s-.03-.72-.55-.72h-2.05c-.3,0-.51,.01-.52,.4-.01,.27-.03,3.6-.03,3.76,0,.41,.25,.41,.49,.41h2.53Zm-3.04,4.38v.75s.01,.14,.16,.14c.21,0,1.38-1.2,1.38-1.44,0-.1-.61-1.41-.69-1.68-.2-.62-.23-.99-.27-1.62-.01-.11-.07-.16-.14-.16-.38,0-.45,.17-.45,.47-.01,.59-.01,1.19-.01,1.78,0,.28,.03,1.51,.03,1.76Zm1-4.01c-.14,0-.2,.06-.2,.16,0,.73,.96,2.49,1.23,2.49,.25,0,.93-1.99,.93-2.39,0-.25-.18-.25-.48-.25h-1.48Z"/><path class="cls-1" d="M102.96,13.45c-.1,.3-.16,4.82-.16,5.89,0,.2,.04,1.09,.01,1.27-.04,.37-.48,.76-.79,.76s-.31-.35-.31-.49c0-.27,.08-1.47,.1-1.72,.01-.37,.14-3.49,.14-4.41,0-1.05-.03-1.09-.14-1.09-.07,0-.13,.09-.39,.44-.41,.54-1.57,2.05-1.82,2.05-.03,0-.08-.03-.08-.08s1.31-2.19,1.54-2.61c1.3-2.41,1.91-4.15,1.99-4.49q.1-.44,.18-.44c.07,0,1.43,.59,1.43,.82,0,.1-.41,.35-.47,.41-.27,.3-.35,.44-1.09,1.72-.14,.24-.45,.78-.45,.95,0,.16,.1,.24,.24,.31,.2,.1,.3,.17,.3,.32,0,.07-.21,.34-.23,.4Zm8.44-1.36c-.37,.03-.48,.08-.85,.35-1.55,1.17-1.88,1.43-2.7,1.89-.38,.23-.97,.57-1.07,.83-.06,.18-.07,2.64-.07,3.09,0,1.93,0,1.98,1.96,1.98,1.76,0,1.96-.1,2.12-.35,.13-.2,.17-.52,.25-1.44,.04-.45,.04-.51,.16-.51,.08,0,.08,.01,.14,.51,.08,.71,.28,1.17,.38,1.34,.04,.09,.34,.48,.34,.59,0,.8-1.81,.8-2.6,.8-3.7,0-3.7-.38-3.7-1.91,0-1.33,.08-7.16,.08-8.37,0-1.07-.01-1.3-.06-1.65-.01-.07-.07-.44-.07-.52,0-.13,.04-.17,.1-.17,.07,0,.49,.16,.8,.27,.51,.18,.57,.2,.57,.32,0,.04-.03,.08-.06,.11-.2,.18-.21,.2-.24,.34-.06,.24-.11,3.6-.11,4.26,0,.13,0,.42,.17,.42,.35,0,2.3-1.89,3.43-3.36,.04-.07,.24-.32,.28-.32s1.24,1.03,1.1,1.34c-.06,.11-.27,.14-.37,.14Z"/><path class="cls-1" d="M115.73,11.25c.25,0,.41,0,.62-.3,.32-.48,.37-.52,.52-.52,.21,0,1.28,.79,1.28,1.02,0,.18-.17,.18-.39,.18h-4.66c-.24,0-.48,0-.78,.01-.06,.01-.25,.04-.3,.04-.03,0-.06-.04-.1-.1l-.21-.3s-.04-.06-.04-.09,.03-.04,.06-.04c.06,0,.28,.04,.32,.04,.64,.04,.73,.04,.99,.04h2.68Zm-.31,1.92c.3,0,.4,0,.57-.24,.27-.4,.37-.45,.47-.45,.25,0,.83,.72,.83,.9,0,.17-.17,.17-.4,.17h-3.18c-.27,0-.38,0-.61,.01-.07,0-.4,.04-.45,.04-.04,0-.06-.01-.1-.08l-.25-.31s-.04-.07-.04-.1,.03-.03,.04-.03c.04,0,.27,.03,.31,.04,.32,.03,.65,.04,1.02,.04h1.79Zm-.17,1.75c.28,0,.41,0,.59-.28,.28-.45,.31-.51,.45-.51,.25,0,1.16,.86,1.16,1.02,0,.14-.17,.14-.4,.14h-3.28c-.23,0-.49,.01-.78,.03-.06,0-.25,.04-.3,.04-.03,0-.04-.01-.1-.1l-.23-.3c-.03-.06-.04-.06-.04-.08,0-.04,.03-.06,.06-.06,.06,0,.28,.04,.32,.06,.59,.04,.78,.04,.99,.04h1.54Zm-.24-5.61c.17,0,.27,0,.37-.06,.14-.08,.59-.76,.75-.76,.1,0,.14,.04,.62,.47,.28,.27,.49,.44,.49,.55,0,.17-.17,.17-.4,.17h-2.8c-.28,0-.48,0-.78,.03-.04,0-.25,.03-.28,.03-.04,0-.08-.04-.11-.08l-.21-.31s-.04-.06-.04-.1c0-.03,.03-.03,.06-.03,.06,0,.25,.03,.32,.04,.32,.04,.73,.06,.99,.06h1.02Zm-.73,10.77c-.09,0-.4,0-.4,.32,0,.06,.04,.28,.04,.34,0,.49-.57,.71-.83,.71-.21,0-.23-.14-.24-.28,0-.31,.01-1.79,.01-2.13,0-.44-.01-.83-.06-1.81,0-.11-.04-.62-.04-.71s0-.13,.06-.13c.11,0,.75,.32,.89,.38,.14,.04,.32,.1,.48,.1h1.4c.18,0,.35-.06,.42-.14,.16-.2,.2-.25,.32-.25,.1,0,1.09,.51,1.09,.73,0,.09-.08,.16-.27,.32-.2,.18-.2,.4-.2,.99,0,.27,.07,1.85,.07,2.2,0,.44-.66,.58-.72,.58-.25,0-.25-.1-.25-.65,0-.42,0-.58-.38-.58h-1.4Zm-.06-2.84c-.41,0-.41,.14-.41,.72,0,.34,.03,1.45,.06,1.54,0,.11,.21,.2,.38,.2h1.43c.41,0,.41-.21,.41-.51,0-.21-.03-1.1-.03-1.28,0-.51,0-.66-.38-.66h-1.45Zm6.09-3.77c.18,0,.35-.04,.4-.27,.01-.06,.01-1.14,.01-1.34,0-.51,0-1.62-.03-2.41-.01-.11-.06-.68-.06-.72,0-.07,0-.11,.06-.11,.23,0,1.54,.28,1.54,.49,0,.1-.44,.41-.48,.51-.06,.11-.06,3.13-.06,3.49s.23,.37,.64,.37c.16,0,.25-.04,.35-.13,.11-.1,.49-.78,.65-.78,.09,0,1.34,.86,1.34,1.1,0,.17-.18,.17-.4,.17h-2.19c-.09,0-.35,0-.4,.27,0,.07-.01,.2-.01,1.85,0,.66,.03,3.91,.03,4.65,0,.69-.59,.82-.69,.82-.4,0-.4-.47-.4-.71,0-.92,.09-5.44,.09-6.45,0-.17-.01-.42-.4-.42h-1.34c-.24,0-.48-.01-.78,.03-.04,0-.24,.04-.28,.04s-.06-.01-.1-.1l-.2-.3s-.04-.07-.04-.11c0-.03,.03-.03,.04-.03,.06,0,.28,.04,.32,.04,.32,.03,.64,.06,1,.06h1.37Z"/><path class="cls-1" d="M126.24,20.08c-.31,0-.4,.08-.4,.35-.01,.41-.03,.88-.71,.88-.41,0-.41-.34-.41-.47,0-.06,.03-.35,.03-.41,.03-.75,.03-2.23,.03-5.89,0-.42,0-.93-.03-1.6-.01-.14-.08-.79-.08-.93,0-.13,.01-.2,.1-.2,.04,0,1.3,.21,1.3,.54,0,.08-.01,.1-.23,.31-.07,.07-.07,.28-.07,.4,0,.31-.04,1.81-.04,2.15,0,.39,.01,4.04,.06,4.25,.04,.24,.23,.25,.42,.25h8.73c.16,0,.3-.03,.37-.23,.04-.1,.04-4.84,.04-5.08,0-.21-.03-1.62-.04-1.74,0-.11-.11-.64-.11-.75s.07-.18,.16-.18c.07,0,1.19,.4,1.24,.42,.06,.04,.1,.1,.1,.17s-.27,.3-.3,.38c-.09,.4-.09,2.43-.09,6.41,0,.18,.06,1.16,.06,1.37,0,.58-.37,.85-.72,.85s-.35-.32-.35-.64c0-.41-.04-.62-.38-.62h-8.67Zm3.4-7.72c.41,0,.42-.21,.42-.64,0-.23,0-1.34-.06-1.47-.06-.11-.2-.14-.34-.14h-1.64c-1,0-1.47-.01-1.78,.03-.06,0-.25,.04-.3,.04-.03,0-.08-.03-.13-.08l-.28-.34s-.06-.07-.06-.09c0-.03,.01-.04,.06-.04,.1,0,.52,.06,.62,.06,.69,.04,1.27,.04,1.93,.04h5c.54,0,.72,0,.99-.45,.1-.18,.25-.41,.41-.41,.24,0,1.38,.89,1.38,1.05,0,.2-.28,.2-.75,.2h-3.74c-.41,0-.41,.18-.41,.79,0,1.44,0,1.45,.45,1.45h1.13c.21,0,.31-.04,.41-.11,.06-.03,.31-.25,.37-.25,.2,0,.85,.54,.85,.65,0,.06-.17,.25-.25,.35-.07,.09-.07,.28-.07,.38v1.88c0,.41,.06,2.16,.06,2.51,0,.17-.04,.66-.64,.66-.32,0-.32-.17-.34-.3-.01-.11-.03-.28-.42-.28h-3.84c-.38,0-.44,.06-.52,.31-.14,.47-.66,.47-.71,.47-.13,0-.31,0-.31-.45,0-.24,.01-.48,.06-1.14,.03-.52,.04-1.14,.04-2.16,0-.72-.01-1.78-.06-2.36-.01-.07-.04-.41-.04-.48,0-.04,0-.13,.09-.13,.1,0,.17,.03,.78,.3,.18,.07,.39,.16,.68,.16h.96Zm.03,2.41c.41,0,.41-.18,.41-.9,0-1.02,0-1.14-.41-1.14h-1.06c-.4,0-.4,.18-.4,.73,0,1.28,0,1.31,.4,1.31h1.06Zm-.03,2.71c.44,0,.44-.1,.44-1.36,0-.79,0-.99-.44-.99h-.99c-.44,0-.44,.03-.44,1.4,0,.76,0,.95,.44,.95h.99Zm1.75-4.76c-.41,0-.41,.16-.41,.93,0,1,0,1.12,.41,1.12h1.16c.41,0,.41-.16,.41-.93,0-1,0-1.12-.41-1.12h-1.16Zm0,2.41c-.09,0-.2,0-.3,.1-.11,.11-.11,.2-.11,.92,0,1.26,0,1.33,.41,1.33h1.13c.41,0,.41-.16,.41-1.44,0-.71,0-.9-.4-.9h-1.14Z"/><path class="cls-1" d="M164.16,10.66c-.48,0-.48,.03-.66,.64-.38,1.33-.97,1.33-1.1,1.33-.27,0-.58-.21-.58-.52,0-.18,.06-.23,.49-.71,.58-.61,.59-1.37,.61-1.68,0-.24,.01-.27,.06-.27,.07,0,.11,.06,.42,.58,.13,.2,.18,.27,.59,.27h2.71c.64,0,.8-.11,.8-.68,0-.17-.01-.49-.04-.65-.01-.06-.14-.32-.14-.38,0-.03,.01-.09,.1-.09s1.06,.23,1.19,.25c.1,.01,.25,.06,.25,.17,0,.07-.23,.3-.25,.34-.06,.08-.08,.17-.08,.35,0,.48,.08,.68,.68,.68h2.64c.24,0,.45,0,.68-.06,.1-.03,.54-.31,.62-.31,.11,0,1.31,.82,1.31,1.17,0,.2-.16,.27-.32,.27-.1,0-.51-.03-.59-.03-.55,0-.79,.11-1.09,.27-.07,.03-.52,.27-.56,.27-.03,0-.07,0-.07-.04,0-.07,.24-.38,.25-.39,.08-.1,.3-.4,.3-.59,0-.18-.1-.18-.38-.18h-7.82Zm1.43,2.78c-.32,0-1.02,0-1.48,.03-.1,0-.49,.04-.58,.04-.06,0-.09-.03-.11-.07l-.34-.38s-.03-.04-.03-.06,.03-.03,.06-.03c.06,0,.76,.06,.9,.07,.45,.03,1.27,.03,1.65,.03h1.34c.51,0,.57-.17,.57-.4,0-.21-.03-.61-.1-.93-.01-.04-.06-.18-.06-.24,0-.07,.03-.11,.1-.11s.68,.08,1.03,.16c.18,.04,.38,.08,.38,.24,0,.07-.07,.11-.23,.23-.16,.1-.21,.24-.21,.55,0,.38,.09,.51,.45,.51h1.37c.58,0,.65,0,.76-.1,.11-.1,.57-.66,.69-.66,.18,0,1.13,.66,1.13,.9,0,.23-.4,.23-.76,.23h-2.92c-.65,0-.75,.01-.75,1.13,0,.45,.42,.48,.66,.48h.54c.68,0,.75,0,.96-.24,.06-.07,.32-.4,.37-.44,.03-.01,.06-.03,.11-.03,.18,0,1.05,.61,1.05,.85,0,.23-.25,.23-.76,.23h-2.12c-.3,0-.78,.03-.86,.3,0,.01-.17,1.02-.17,1.05,0,.23,.13,.28,.34,.28h2.94c.44,0,.82,0,1.02-.24,.4-.47,.44-.52,.58-.52,.21,0,1.09,.83,1.09,.95,0,.2-.28,.2-.75,.2h-3.95s-.25,0-.25,.13c0,.38,1.99,2.47,4.82,2.47,.3,0,.35,0,.35,.06,0,0-.54,.44-.62,.52-.23,.24-.32,.38-.38,.52-.04,.1-.06,.14-.11,.14-.08,0-1.91-.38-3.5-2.15-.47-.51-.61-.73-1.03-1.4-.07-.1-.18-.3-.44-.3s-.3,.08-.54,.62c-.79,1.71-2.22,2.51-3.29,2.85-.85,.25-1.88,.35-1.99,.35-.09,0-.23,0-.23-.1,0-.07,.01-.07,.38-.16,3.18-.69,4.25-2.98,4.25-3.4,0-.16-.16-.17-.23-.17h-2.06c-.32,0-1.02,0-1.48,.01-.1,0-.49,.06-.58,.06-.06,0-.08-.04-.11-.07l-.34-.4s-.03-.04-.03-.04c0-.03,.03-.04,.06-.04,.06,0,.76,.06,.9,.07,.45,.03,1.27,.03,1.65,.03h2.06c.42,0,.65-.38,.65-1.34,0-.21-.1-.28-.44-.28h-.66c-.41,0-.96,0-1.48,.03-.1,0-.49,.04-.58,.04-.07,0-.07-.01-.11-.06l-.3-.37s-.07-.07-.07-.08,.03-.03,.06-.03c.11,0,.61,.04,.71,.06,.3,.01,1.14,.04,1.85,.04h.58c.47,0,.59-.2,.59-1.16,0-.28,0-.45-.59-.45h-1.36Z"/><path class="cls-1" d="M178.97,12.71c-.21,.07-.93,1.02-.93,1.14,0,.06,.03,.1,.17,.2,.11,.07,.16,.13,.16,.2,0,.06-.16,.25-.18,.3-.04,.1-.04,.25-.04,.37,0,.55-.06,3.02-.06,3.53,0,.31,.01,1.72,.01,2.02,0,.16,0,.89-.75,.89-.21,0-.44-.06-.44-.34,0-.11,.09-.89,.1-1.02,.03-.54,.14-3.54,.14-4.24s0-.76-.1-.76c-.06,0-.38,.32-.42,.37-.44,.41-1.84,1.76-2.09,1.76-.03,0-.09,0-.09-.06,0-.1,.37-.52,.48-.66,.37-.42,2.13-2.64,2.84-3.91,.3-.52,.32-.61,.41-.8,.03-.07,.07-.16,.17-.16,.07,0,1.16,.62,1.1,.89-.03,.11-.07,.13-.48,.28Zm.01-3.3c0,.14-.16,.17-.27,.2-.24,.04-.3,.1-.82,.59-1.29,1.23-2.77,2.17-2.88,2.17-.09,0-.1-.06-.1-.09,0-.1,.8-.86,.95-1.03,.86-.99,1.27-1.57,1.72-2.36,.18-.32,.18-.34,.3-.34,.04,0,.08,.01,.17,.06,.21,.14,.93,.62,.93,.79Zm2.94,4.14c-1.24,0-1.65,.03-1.79,.04-.04,0-.25,.03-.3,.03s-.07-.03-.13-.08l-.27-.32q-.06-.07-.06-.1s.01-.03,.04-.03c.1,0,.54,.04,.62,.04,.78,.04,1.3,.06,2.02,.06h3.01c.21,0,.35,0,.54-.24,.38-.51,.42-.56,.58-.56,.21,0,1.23,.83,1.23,.99s-.21,.18-.54,.18h-1.79c-.42,0-.44,.24-.44,.48v4.83c0,1.23,.01,2.01-.64,2.3-.35,.17-.75,.23-.86,.23-.17,0-.2-.09-.23-.23-.11-.62-1.03-.88-1.3-.95-.11-.03-.2-.1-.2-.16s.09-.06,.11-.06c.07,0,.38,.04,.44,.06,.27,.03,.86,.06,.95,.06,.41,0,.55-.1,.62-.47,.04-.23,.09-3.02,.09-3.12,0-.38-.04-2.27-.04-2.41,0-.34-.03-.57-.42-.57h-1.24Zm1.91-3.84c.24,0,.34,0,.54-.24,.4-.47,.44-.52,.57-.52,.16,0,1.24,.75,1.24,.95,0,.14-.23,.18-.47,.18h-2.9c-1.23,0-1.64,.03-1.78,.04-.04,0-.25,.03-.3,.03-.06,0-.09-.03-.13-.09l-.27-.32c-.06-.07-.07-.07-.07-.1s.03-.03,.06-.03c.1,0,.54,.04,.62,.04,.69,.03,1.5,.06,1.93,.06h.95Z"/><path class="cls-1" d="M189.94,16.84c-1.23,0-1.64,.03-1.78,.03-.04,.01-.25,.04-.3,.04-.06,0-.07-.04-.13-.1l-.27-.32s-.06-.06-.06-.08,.01-.04,.04-.04c.1,0,.54,.06,.62,.06,.69,.03,1.27,.04,1.93,.04h1.19c.47,0,.54-.14,.9-.89,.1-.21,.34-.69,.41-.96,0-.06,.03-.1,.08-.1,.14,.06,1.16,.48,1.16,.62,0,.07-.35,.24-.44,.32-.04,.04-.48,.66-.48,.8,0,.2,.17,.2,.32,.2h4.07c.64,0,.71,0,.9-.23,.39-.48,.44-.52,.56-.52,.1,0,1.33,.75,1.33,.93,0,.2-.28,.2-.76,.2h-3.04c-.14,0-.17,.04-.17,.07,0,.07,.44,.54,.44,.66,0,.1-.08,.16-.28,.18-.23,.06-.54,.45-.72,.69-.27,.34-.3,.38-.3,.48,0,.16,.06,.18,.56,.37,.89,.34,1.74,.83,2.02,1.06,.07,.07,.31,.28,.31,.58s-.27,.41-.48,.41c-.35,0-.47-.08-1.21-.64-.14-.1-1.47-1.07-1.89-1.07-.14,0-.25,.07-.4,.17-1.75,1.16-4.21,1.51-4.94,1.51-.04,0-.18,0-.18-.11,0-.07,.03-.07,.28-.11,2.12-.34,3.36-1.19,4.04-1.65,.14-.1,.28-.18,.28-.31,0-.14-.13-.2-.23-.24-.27-.11-1.27-.52-1.45-.52-.2,0-.21,.03-.37,.3-.13,.21-.32,.55-.82,.55-.31,0-.42-.2-.42-.32,0-.11,.34-.55,.4-.65,.17-.25,.61-.99,.61-1.16,0-.24-.17-.24-.3-.24h-1.06Zm.28-5.2c-1.24,0-1.65,.01-1.79,.03-.04,.01-.25,.04-.3,.04s-.07-.04-.13-.1l-.27-.32s-.06-.07-.06-.09c0-.03,.01-.04,.04-.04,.1,0,.54,.04,.62,.06,.69,.03,1.28,.04,1.95,.04h2.56c.48,0,.48-.13,.48-.79,0-.17-.16-.37-.42-.37-.58,0-3.19,.2-3.73,.2-.16,0-.47,0-.47-.11,0-.07,.01-.07,.14-.08,4.17-.44,6.35-1.05,6.95-1.26,.07-.03,.37-.18,.45-.23,.17,.1,1.37,.82,1.37,.99,0,.07-.13,.11-.2,.11-.89,0-1.05,.03-2.44,.21-.59,.08-.76,.11-.76,.71,0,.47,0,.62,.47,.62h2.43c.62,0,.69,0,.9-.24,.4-.47,.44-.52,.57-.52,.08,0,1.31,.76,1.31,.93,0,.21-.28,.21-.75,.21h-4.04c-.2,0-.24,.11-.24,.2,0,.11,.99,1.28,3.19,2.03,.71,.24,1.04,.32,1.78,.44,.03,.01,.07,.01,.07,.04,0,.07-.27,.17-.32,.2-.23,.14-.28,.2-.79,.66-.04,.03-.08,.07-.14,.07-.1,0-2.61-1.03-4.15-3.32-.03-.03-.07-.1-.14-.1-.01,0-.14,.01-.14,.17,0,.31,.06,1.79,.06,1.96,0,.3-.54,.61-.78,.61-.17,0-.32-.08-.32-.28,0-.3,.1-1.62,.1-1.89,0-.07-.07-.17-.2-.17-.08,0-.11,.03-.21,.13-2.22,2.13-4.48,3.09-4.86,3.09-.06,0-.06-.03-.06-.04,.28-.17,.93-.61,1.26-.85,1.67-1.23,2.88-2.57,2.88-2.78,0-.17-.2-.17-.31-.17h-1.55Zm2.77,5.2c-.18,0-.47,0-.58,.18-.04,.06-.48,.86-.48,.93,0,.2,.16,.23,.37,.27,.24,.04,1.62,.37,1.68,.37,.25,0,.37-.14,.62-.47,.14-.18,.59-.9,.59-1.05,0-.06-.04-.24-.3-.24h-1.91Z"/><path class="cls-1" d="M203.9,19.63c0,.17-.2,.21-.61,.31-.07,.03-1.33,.59-1.58,.69-.79,.32-2.51,.83-2.87,.83-.03,0-.11,0-.11-.06,0-.07,.03-.1,.35-.24,.96-.44,3.14-1.68,3.57-2.36,.04-.06,.08-.11,.14-.11,.03,0,.09,.04,.1,.06,.32,.18,1,.66,1,.88Zm-2.23-.99c-.21,0-.39,0-.44,.18-.06,.23-.13,.49-.59,.49-.28,0-.44-.18-.44-.51,0-.1,.01-.27,.03-.55,.03-.71,.04-1.55,.04-2.39,0-.58,0-2.49-.11-2.88-.01-.06-.14-.32-.14-.39s.07-.09,.11-.09c.2,0,.69,.25,.88,.34,.2,.1,.34,.14,.64,.14h6.26c.65,0,.72,0,.83-.18,.21-.32,.24-.37,.35-.37,.16,0,.95,.58,.95,.79,0,.08-.01,.08-.24,.2-.18,.08-.2,.2-.21,.38-.01,.1-.01,4.38-.01,4.62,0,.2,0,.8-.68,.8-.21,0-.35-.06-.38-.24-.03-.3-.06-.35-.41-.35h-6.43Zm-.01-5.28c-.24,0-.47,0-.47,.41,0,.92,0,1.02,.45,1.02h6.47c.48,0,.48-.1,.48-1.03,0-.4-.23-.4-.44-.4h-6.5Zm6.45,3.14c.45,0,.45-.1,.45-.96,0-.37-.24-.38-.44-.38h-6.52c-.16,0-.39,.01-.39,.41,0,.83,0,.93,.45,.93h6.45Zm-1.24-7.05c.52,0,.65,0,.8-.18,.28-.32,.31-.37,.44-.37,.17,0,.9,.42,.9,.66,0,.1-.06,.14-.24,.3-.16,.14-.23,.32-.23,.62,0,.14,.03,.89,.03,1.06,0,.58-.21,.83-.62,.83-.25,0-.28-.09-.35-.32-.07-.2-.37-.2-.45-.2h-4.41c-.17,0-.32,0-.4,.14-.13,.28-.2,.42-.69,.42-.27,0-.42-.1-.42-.47,0-.23,.06-1.36,.04-1.62,0-.21-.06-1.23-.06-1.34,0-.09,.01-.13,.1-.13,.07,0,.75,.37,.85,.42,.23,.13,.3,.17,.72,.17h3.98Zm1.23,8.81c.45,0,.45-.1,.45-1.02,0-.38-.21-.38-.44-.38h-6.45c-.2,0-.44,0-.44,.37,0,.93,0,1.03,.45,1.03h6.43Zm-.95-6.78c.23,0,.39,0,.45-.27,.01-.07,.01-.78,.01-.93,0-.41-.11-.47-.47-.47h-4.43c-.21,0-.44,0-.44,.4,0,.21,0,.97,.04,1.09,.07,.18,.28,.18,.44,.18h4.39Zm3.29,9.28c0,.28-.21,.61-.68,.61-.28,0-.37-.06-1.07-.62-.2-.16-1.23-.85-2.94-1.58-.03-.01-.2-.07-.23-.08-.04-.01-.07-.04-.07-.09,0-.06,.07-.07,.14-.07,.14,0,1.36,.17,1.61,.21,.28,.06,3.23,.59,3.23,1.62Z"/><path class="cls-1" d="M210.03,14.78c0-.06,.04-.09,.21-.2,.1-.07,1.26-.89,2.17-1.67,2.42-2.06,3.3-3.74,3.38-4.05,.11-.44,.11-.49,.28-.49,.01,0,1.33,.62,1.33,.86,0,.07-.03,.08-.17,.18-.08,.04-.1,.08-.1,.14,0,.44,2.5,3.57,5.85,4.52q.4,.11,.4,.18c0,.08-.04,.1-.4,.21-.18,.06-.69,.23-.9,.58-.06,.1-.1,.14-.18,.14-.31,0-3.32-2.08-4.91-4.98-.16-.3-.18-.34-.24-.34s-.28,.28-.39,.42c-2.5,3.14-5.68,4.43-6.19,4.53-.04,.01-.13,.03-.13-.04Zm3.88,1.93c-1.05,0-1.4,.01-1.78,.04-.04,0-.25,.03-.3,.03-.06,0-.07-.03-.13-.09l-.27-.32s-.07-.08-.07-.1c0-.03,.03-.03,.06-.03,.1,0,.54,.04,.62,.04,.69,.03,1.44,.06,1.93,.06h4.66c.59,0,.75,0,1.09-.47,.21-.3,.27-.38,.39-.38,.11,0,.16,.03,.48,.3,.72,.59,.72,.61,.72,.73,0,.18-.07,.18-.73,.18h-4.32c-.14,0-.2,0-.2,.04,0,0,.66,.56,.66,.72q0,.13-.42,.24c-.11,.04-.14,.08-.49,.55-.3,.4-.88,1.09-.96,1.17-.06,.07-.2,.21-.2,.34s.2,.14,.25,.14c.18,0,1.51-.09,3.08-.24,1.02-.1,1.13-.11,1.13-.25,0-.21-.83-.93-.83-1.1,0-.07,.06-.08,.1-.08,.21,0,1.61,.78,1.79,.88,.38,.23,1.26,.73,1.26,1.62,0,.45-.28,.76-.55,.76-.41,0-.71-.52-.96-.99-.27-.48-.4-.52-.59-.52-.65,0-6.07,1.09-6.55,1.3-.07,.03-.34,.23-.41,.23-.04,0-.11-.03-.14-.1-.28-.49-.78-1.37-.78-1.5,0-.1,.07-.1,.11-.1,.1,0,.54,.08,.62,.1,.2,.03,.59,.06,.83,.06,.79,0,.89,0,1.47-1.16,.34-.68,.73-1.69,.73-1.86,0-.24-.18-.24-.42-.24h-.89Zm2.94-2.63c.69,0,.72-.03,1-.37,.23-.27,.4-.48,.47-.48,.13,0,1.07,.9,1.07,1.06s-.07,.16-.75,.16h-3.25c-.86,0-1.27,0-1.79,.04-.04,0-.25,.03-.3,.03s-.07-.03-.13-.09l-.27-.32c-.06-.06-.06-.07-.06-.1,0-.01,.01-.03,.04-.03,.1,0,.54,.04,.62,.04,.69,.04,1.37,.06,1.93,.06h1.4Z"/><path class="cls-1" d="M53.29,26.03c-.11,.06-.22,.1-.34,.13-.12,.03-.24,.04-.37,.04-.41,0-.73-.15-.96-.44-.23-.29-.34-.7-.34-1.23s.11-.93,.34-1.23,.55-.44,.96-.44c.13,0,.25,.01,.37,.04,.12,.03,.23,.07,.34,.13v.45c-.11-.09-.22-.15-.34-.2-.12-.05-.24-.07-.37-.07-.28,0-.49,.11-.64,.33s-.21,.55-.21,.99,.07,.77,.21,.99,.35,.33,.64,.33c.13,0,.25-.02,.37-.07s.23-.11,.34-.2v.45Z"/><path class="cls-1" d="M55.89,24.65v1.49h-.4v-1.49c0-.22-.04-.38-.11-.48-.08-.1-.2-.15-.36-.15-.18,0-.33,.07-.43,.2-.1,.13-.15,.32-.15,.57v1.36h-.4v-3.35h.4v1.3c.07-.14,.17-.24,.29-.31s.26-.11,.43-.11c.25,0,.43,.08,.55,.24s.18,.41,.18,.73Z"/><path class="cls-1" d="M56.7,25.23v-1.49h.4v1.49c0,.22,.04,.38,.11,.48,.08,.1,.2,.15,.36,.15,.19,0,.33-.07,.43-.2,.1-.13,.15-.32,.15-.57v-1.36h.4v2.41h-.4v-.36c-.07,.14-.17,.24-.29,.32s-.26,.11-.43,.11c-.25,0-.43-.08-.55-.24s-.18-.41-.18-.73Z"/><path class="cls-1" d="M60.26,23.68c.33,0,.59,.11,.77,.33,.18,.22,.27,.53,.27,.94s-.09,.73-.26,.94c-.18,.22-.43,.32-.77,.32s-.59-.11-.77-.32c-.18-.22-.26-.53-.26-.94s.09-.72,.26-.94c.18-.22,.43-.33,.77-.33Zm0,.34c-.2,0-.35,.08-.46,.23-.1,.16-.15,.39-.15,.7s.05,.54,.15,.69c.1,.16,.26,.24,.46,.24s.36-.08,.46-.24c.1-.16,.15-.39,.15-.69s-.05-.54-.15-.7c-.1-.16-.26-.23-.46-.23Z"/><path class="cls-1" d="M64.67,25.23v-1.49h.4v1.49c0,.22,.04,.38,.11,.48,.08,.1,.2,.15,.36,.15,.19,0,.33-.07,.43-.2,.1-.13,.15-.32,.15-.57v-1.36h.4v2.41h-.4v-.36c-.07,.14-.17,.24-.29,.32s-.26,.11-.43,.11c-.25,0-.43-.08-.55-.24s-.18-.41-.18-.73Z"/><path class="cls-1" d="M69.17,24.65v1.49h-.4v-1.49c0-.22-.04-.38-.11-.48-.08-.1-.2-.15-.36-.15-.18,0-.33,.07-.43,.2-.1,.13-.15,.32-.15,.57v1.36h-.4v-2.41h.4v.36c.07-.14,.17-.24,.29-.31s.26-.11,.43-.11c.25,0,.43,.08,.55,.24s.18,.41,.18,.73Z"/><path class="cls-1" d="M70.24,23.74h1.01v2.09h.79v.31h-1.97v-.31h.79v-1.79h-.62v-.31Zm.62-.94h.4v.5h-.4v-.5Z"/><path class="cls-1" d="M72.43,23.74h.41l.7,2.02,.7-2.02h.41l-.86,2.41h-.51l-.86-2.41Z"/><path class="cls-1" d="M77.28,24.74v.19h-1.72c-.01,.34,.05,.58,.19,.72,.14,.14,.33,.22,.58,.22,.13,0,.26-.02,.4-.06s.28-.1,.44-.18v.39c-.15,.06-.3,.11-.44,.14s-.28,.05-.41,.05c-.38,0-.67-.11-.88-.34s-.32-.53-.32-.93,.1-.69,.31-.92,.48-.34,.83-.34c.31,0,.55,.1,.73,.31,.18,.21,.27,.46,.28,.75Zm-.4-.12c-.02-.17-.08-.31-.18-.43s-.25-.18-.45-.18-.35,.06-.47,.19-.19,.27-.2,.43h1.3Z"/><path class="cls-1" d="M80.01,24.23c-.09-.07-.17-.11-.26-.14-.09-.03-.18-.04-.29-.04-.25,0-.44,.08-.57,.23-.13,.15-.2,.38-.2,.67v1.2h-.4v-2.41h.4v.47c.07-.17,.17-.3,.3-.39,.14-.09,.3-.14,.49-.14,.1,0,.19,.01,.27,.04,.08,.02,.17,.06,.24,.11v.4Z"/><path class="cls-1" d="M82.27,23.82v.39c-.11-.07-.23-.12-.34-.15-.11-.03-.23-.05-.35-.05-.18,0-.31,.03-.4,.09-.09,.06-.13,.15-.13,.27,0,.11,.03,.19,.1,.24,.07,.05,.23,.11,.49,.16l.16,.03c.2,.04,.35,.11,.45,.22,.1,.11,.15,.26,.15,.44,0,.24-.08,.43-.25,.56-.17,.13-.4,.2-.71,.2-.12,0-.24-.01-.37-.04-.13-.03-.27-.06-.42-.11v-.41c.15,.08,.29,.13,.42,.17s.26,.06,.38,.06c.18,0,.31-.04,.41-.11,.1-.07,.14-.17,.14-.3,0-.18-.18-.31-.53-.38h-.02s-.15-.03-.15-.03c-.23-.04-.4-.12-.5-.22-.1-.11-.16-.25-.16-.43,0-.23,.08-.41,.23-.54,.16-.13,.38-.19,.67-.19,.13,0,.25,.01,.37,.04,.12,.02,.24,.06,.35,.11Z"/><path class="cls-1" d="M83.51,23.74h1.01v2.09h.79v.31h-1.97v-.31h.79v-1.79h-.62v-.31Zm.62-.94h.4v.5h-.4v-.5Z"/><path class="cls-1" d="M86.81,23.05v.68h.9v.31h-.9v1.31c0,.18,.03,.3,.1,.37,.07,.07,.18,.11,.35,.11h.45v.32h-.48c-.3,0-.51-.06-.63-.18-.12-.12-.18-.32-.18-.62v-1.31h-.64v-.31h.64v-.68h.4Z"/><path class="cls-1" d="M89.99,25.37c-.07,.17-.15,.39-.25,.66-.14,.38-.24,.61-.29,.69-.07,.11-.15,.2-.25,.25-.1,.06-.21,.08-.35,.08h-.32v-.33h.23c.12,0,.21-.03,.27-.1,.07-.07,.15-.24,.25-.52l-.93-2.37h.42l.71,1.89,.7-1.89h.42l-.64,1.64Z"/><path class="cls-1" d="M93.74,22.93h.44v1.23h1.19v-1.23h.44v3.21h-.44v-1.62h-1.19v1.62h-.44v-3.21Z"/><path class="cls-1" d="M96.78,23.74h1.01v2.09h.79v.31h-1.97v-.31h.79v-1.79h-.62v-.31Zm.62-.94h.4v.5h-.4v-.5Z"/><path class="cls-1" d="M101,25.99c0,.36-.09,.64-.26,.82-.17,.19-.42,.28-.75,.28-.11,0-.22,0-.34-.03-.12-.02-.24-.05-.36-.09v-.39c.14,.07,.27,.11,.38,.15s.22,.05,.32,.05c.21,0,.37-.06,.47-.17,.1-.12,.15-.3,.15-.55v-.29c-.06,.13-.15,.24-.26,.3s-.24,.1-.4,.1c-.28,0-.51-.11-.67-.34-.17-.23-.25-.53-.25-.9s.08-.68,.25-.91c.17-.23,.39-.34,.67-.34,.16,0,.29,.03,.39,.09,.11,.06,.2,.16,.26,.29v-.31h.4v2.25Zm-.4-1.07c0-.3-.05-.52-.15-.68-.1-.15-.24-.23-.42-.23-.19,0-.34,.08-.44,.23-.1,.15-.15,.38-.15,.68s.05,.52,.15,.68c.1,.16,.25,.23,.45,.23,.18,0,.32-.08,.42-.23,.1-.16,.15-.38,.15-.68Z"/><path class="cls-1" d="M103.67,24.65v1.49h-.4v-1.49c0-.22-.04-.38-.11-.48-.08-.1-.2-.15-.36-.15-.18,0-.33,.07-.43,.2-.1,.13-.15,.32-.15,.57v1.36h-.4v-3.35h.4v1.3c.07-.14,.17-.24,.29-.31s.26-.11,.43-.11c.25,0,.43,.08,.55,.24s.18,.41,.18,.73Z"/><path class="cls-1" d="M105.61,25.28c0,.18,.03,.31,.1,.4,.06,.09,.16,.14,.29,.14h.46v.33h-.5c-.24,0-.42-.08-.55-.23-.13-.15-.2-.37-.2-.64v-2.18h-.63v-.31h1.03v2.49Z"/><path class="cls-1" d="M108.57,25.37c-.07,.17-.15,.39-.25,.66-.14,.38-.24,.61-.29,.69-.07,.11-.15,.2-.25,.25-.1,.06-.21,.08-.35,.08h-.32v-.33h.23c.12,0,.21-.03,.27-.1,.07-.07,.15-.24,.25-.52l-.93-2.37h.42l.71,1.89,.7-1.89h.42l-.64,1.64Z"/><path class="cls-1" d="M112.46,22.93h1.79v.37h-.67v2.48h.67v.37h-1.79v-.37h.67v-2.48h-.67v-.37Z"/><path class="cls-1" d="M116.95,24.65v1.49h-.4v-1.49c0-.22-.04-.38-.11-.48-.08-.1-.2-.15-.36-.15-.18,0-.33,.07-.43,.2-.1,.13-.15,.32-.15,.57v1.36h-.4v-2.41h.4v.36c.07-.14,.17-.24,.29-.31s.26-.11,.43-.11c.25,0,.43,.08,.55,.24s.18,.41,.18,.73Z"/><path class="cls-1" d="M119.63,22.8v.33h-.45c-.14,0-.24,.03-.3,.09-.06,.06-.08,.16-.08,.31v.21h.83v.31h-.83v2.1h-.4v-2.1h-.64v-.31h.64v-.17c0-.26,.06-.46,.18-.58,.12-.12,.31-.19,.57-.19h.48Z"/><path class="cls-1" d="M121.32,23.68c.33,0,.59,.11,.77,.33,.18,.22,.27,.53,.27,.94s-.09,.73-.26,.94c-.18,.22-.43,.32-.77,.32s-.59-.11-.77-.32c-.18-.22-.26-.53-.26-.94s.09-.72,.26-.94c.18-.22,.43-.33,.77-.33Zm0,.34c-.2,0-.35,.08-.46,.23-.1,.16-.15,.39-.15,.7s.05,.54,.15,.69c.1,.16,.26,.24,.46,.24s.36-.08,.46-.24c.1-.16,.15-.39,.15-.69s-.05-.54-.15-.7c-.1-.16-.26-.23-.46-.23Z"/><path class="cls-1" d="M125.13,24.23c-.09-.07-.17-.11-.26-.14-.09-.03-.18-.04-.29-.04-.25,0-.44,.08-.57,.23-.13,.15-.2,.38-.2,.67v1.2h-.4v-2.41h.4v.47c.07-.17,.17-.3,.3-.39,.14-.09,.3-.14,.49-.14,.1,0,.19,.01,.27,.04,.08,.02,.17,.06,.24,.11v.4Z"/><path class="cls-1" d="M126.76,23.98c.05-.1,.11-.18,.19-.23s.17-.07,.27-.07c.19,0,.33,.08,.41,.23,.08,.15,.12,.43,.12,.85v1.4h-.36v-1.38c0-.34-.02-.55-.06-.63-.04-.08-.11-.12-.21-.12-.11,0-.19,.04-.24,.13-.04,.09-.06,.3-.06,.63v1.38h-.36v-1.38c0-.34-.02-.56-.06-.64s-.11-.12-.22-.12-.18,.04-.22,.13c-.04,.09-.06,.3-.06,.63v1.38h-.36v-2.41h.36v.21c.05-.09,.11-.15,.18-.2,.07-.04,.15-.07,.24-.07,.11,0,.2,.03,.27,.08,.07,.05,.13,.13,.17,.23Z"/><path class="cls-1" d="M130.24,24.77v1.38h-.4v-.36c-.08,.14-.19,.25-.32,.32-.13,.07-.28,.1-.47,.1-.25,0-.44-.07-.59-.21s-.22-.32-.22-.56c0-.27,.09-.47,.27-.61,.18-.14,.44-.21,.79-.21h.53v-.06c0-.19-.05-.33-.15-.42-.1-.09-.25-.13-.46-.13-.13,0-.27,.02-.41,.06-.14,.04-.27,.1-.4,.17v-.4c.15-.06,.29-.1,.42-.13,.13-.03,.26-.04,.39-.04,.2,0,.37,.03,.51,.09,.14,.06,.26,.15,.34,.26,.05,.07,.09,.16,.12,.27s.03,.26,.03,.47Zm-.77,.16h-.13c-.23,0-.41,.04-.52,.12-.12,.08-.18,.2-.18,.36,0,.14,.04,.26,.13,.34,.09,.08,.21,.12,.36,.12,.22,0,.39-.08,.51-.23,.13-.15,.19-.36,.19-.63v-.09h-.37Z"/><path class="cls-1" d="M131.93,23.05v.68h.9v.31h-.9v1.31c0,.18,.03,.3,.1,.37,.07,.07,.18,.11,.35,.11h.45v.32h-.48c-.3,0-.51-.06-.63-.18-.12-.12-.18-.32-.18-.62v-1.31h-.64v-.31h.64v-.68h.4Z"/><path class="cls-1" d="M133.95,23.74h1.01v2.09h.79v.31h-1.97v-.31h.79v-1.79h-.62v-.31Zm.62-.94h.4v.5h-.4v-.5Z"/><path class="cls-1" d="M136.41,23.73h1.75v.36l-1.38,1.73h1.38v.32h-1.8v-.37l1.38-1.73h-1.33v-.32Z"/><path class="cls-1" d="M140.86,24.77v1.38h-.4v-.36c-.08,.14-.19,.25-.32,.32-.13,.07-.28,.1-.47,.1-.25,0-.44-.07-.59-.21s-.22-.32-.22-.56c0-.27,.09-.47,.27-.61,.18-.14,.44-.21,.79-.21h.53v-.06c0-.19-.05-.33-.15-.42-.1-.09-.25-.13-.46-.13-.13,0-.27,.02-.41,.06-.14,.04-.27,.1-.4,.17v-.4c.15-.06,.29-.1,.42-.13,.13-.03,.26-.04,.39-.04,.2,0,.37,.03,.51,.09,.14,.06,.26,.15,.34,.26,.05,.07,.09,.16,.12,.27s.03,.26,.03,.47Zm-.77,.16h-.13c-.23,0-.41,.04-.52,.12-.12,.08-.18,.2-.18,.36,0,.14,.04,.26,.13,.34,.09,.08,.21,.12,.36,.12,.22,0,.39-.08,.51-.23,.13-.15,.19-.36,.19-.63v-.09h-.37Z"/><path class="cls-1" d="M142.55,23.05v.68h.9v.31h-.9v1.31c0,.18,.03,.3,.1,.37,.07,.07,.18,.11,.35,.11h.45v.32h-.48c-.3,0-.51-.06-.63-.18-.12-.12-.18-.32-.18-.62v-1.31h-.64v-.31h.64v-.68h.4Z"/><path class="cls-1" d="M144.57,23.74h1.01v2.09h.79v.31h-1.97v-.31h.79v-1.79h-.62v-.31Zm.62-.94h.4v.5h-.4v-.5Z"/><path class="cls-1" d="M147.87,23.68c.33,0,.59,.11,.77,.33,.18,.22,.27,.53,.27,.94s-.09,.73-.26,.94c-.18,.22-.43,.32-.77,.32s-.59-.11-.77-.32c-.18-.22-.26-.53-.26-.94s.09-.72,.26-.94c.18-.22,.43-.33,.77-.33Zm0,.34c-.2,0-.35,.08-.46,.23-.1,.16-.15,.39-.15,.7s.05,.54,.15,.69c.1,.16,.26,.24,.46,.24s.36-.08,.46-.24c.1-.16,.15-.39,.15-.69s-.05-.54-.15-.7c-.1-.16-.26-.23-.46-.23Z"/><path class="cls-1" d="M151.46,24.65v1.49h-.4v-1.49c0-.22-.04-.38-.11-.48-.08-.1-.2-.15-.36-.15-.18,0-.33,.07-.43,.2-.1,.13-.15,.32-.15,.57v1.36h-.4v-2.41h.4v.36c.07-.14,.17-.24,.29-.31s.26-.11,.43-.11c.25,0,.43,.08,.55,.24s.18,.41,.18,.73Z"/><path class="cls-1" d="M154.93,22.93h.94c.36,0,.63,.08,.82,.24,.18,.16,.28,.4,.28,.72s-.09,.56-.28,.72c-.18,.16-.46,.24-.82,.24h-.5v1.29h-.44v-3.21Zm.44,.36v1.21h.5c.2,0,.36-.05,.47-.16s.17-.25,.17-.45-.06-.34-.17-.44c-.11-.11-.27-.16-.47-.16h-.5Z"/><path class="cls-1" d="M159.64,24.23c-.09-.07-.17-.11-.26-.14-.09-.03-.18-.04-.29-.04-.25,0-.44,.08-.57,.23-.13,.15-.2,.38-.2,.67v1.2h-.4v-2.41h.4v.47c.07-.17,.17-.3,.3-.39,.14-.09,.3-.14,.49-.14,.1,0,.19,.01,.27,.04,.08,.02,.17,.06,.24,.11v.4Z"/><path class="cls-1" d="M161.14,23.68c.33,0,.59,.11,.77,.33,.18,.22,.27,.53,.27,.94s-.09,.73-.26,.94c-.18,.22-.43,.32-.77,.32s-.59-.11-.77-.32c-.18-.22-.26-.53-.26-.94s.09-.72,.26-.94c.18-.22,.43-.33,.77-.33Zm0,.34c-.2,0-.35,.08-.46,.23-.1,.16-.15,.39-.15,.7s.05,.54,.15,.69c.1,.16,.26,.24,.46,.24s.36-.08,.46-.24c.1-.16,.15-.39,.15-.69s-.05-.54-.15-.7c-.1-.16-.26-.23-.46-.23Z"/><path class="cls-1" d="M163.76,26.19v-2.15h-.68v-.31h1.08v2.45c0,.28-.06,.5-.19,.65-.13,.15-.31,.23-.55,.23h-.55v-.34h.5c.13,0,.23-.04,.29-.13,.06-.09,.1-.22,.1-.4Zm0-3.39h.4v.5h-.4v-.5Z"/><path class="cls-1" d="M167.53,24.74v.19h-1.72c-.01,.34,.05,.58,.19,.72,.14,.14,.33,.22,.58,.22,.13,0,.26-.02,.4-.06s.28-.1,.44-.18v.39c-.15,.06-.3,.11-.44,.14s-.28,.05-.41,.05c-.38,0-.67-.11-.88-.34s-.32-.53-.32-.93,.1-.69,.31-.92,.48-.34,.83-.34c.31,0,.55,.1,.73,.31,.18,.21,.27,.46,.28,.75Zm-.4-.12c-.02-.17-.08-.31-.18-.43s-.25-.18-.45-.18-.35,.06-.47,.19-.19,.27-.2,.43h1.3Z"/><path class="cls-1" d="M170.06,26.02c-.11,.06-.22,.11-.33,.14-.11,.03-.23,.05-.35,.05-.37,0-.67-.11-.88-.34s-.32-.53-.32-.93,.11-.71,.32-.93,.5-.34,.88-.34c.12,0,.23,.02,.34,.05,.11,.03,.22,.08,.33,.14v.42c-.1-.09-.21-.16-.32-.2-.11-.04-.23-.06-.36-.06-.25,0-.44,.08-.57,.24-.13,.16-.2,.39-.2,.69s.07,.53,.2,.69c.13,.16,.32,.24,.57,.24,.14,0,.26-.02,.37-.06,.11-.04,.21-.11,.3-.2v.41Z"/><path class="cls-1" d="M171.75,23.05v.68h.9v.31h-.9v1.31c0,.18,.03,.3,.1,.37,.07,.07,.18,.11,.35,.11h.45v.32h-.48c-.3,0-.51-.06-.63-.18-.12-.12-.18-.32-.18-.62v-1.31h-.64v-.31h.64v-.68h.4Z"/><path class="cls-1" d="M177.92,23.04v.44c-.13-.08-.26-.15-.4-.19s-.27-.06-.4-.06c-.21,0-.37,.05-.49,.14-.12,.1-.18,.22-.18,.39,0,.14,.04,.25,.12,.33s.22,.14,.44,.19l.23,.05c.3,.07,.52,.18,.66,.33,.14,.15,.21,.36,.21,.62,0,.31-.09,.54-.28,.7s-.47,.24-.83,.24c-.15,0-.3-.02-.45-.05-.15-.03-.3-.08-.46-.15v-.46c.17,.11,.32,.18,.47,.23,.15,.05,.3,.07,.44,.07,.22,0,.39-.05,.51-.15,.12-.1,.18-.24,.18-.41,0-.16-.04-.28-.13-.37-.08-.08-.23-.15-.44-.2l-.23-.05c-.3-.07-.52-.17-.65-.31-.13-.14-.2-.32-.2-.55,0-.29,.1-.52,.29-.69s.45-.26,.77-.26c.12,0,.25,.01,.39,.04,.14,.03,.28,.07,.43,.13Z"/><path class="cls-1" d="M179.72,23.05v.68h.9v.31h-.9v1.31c0,.18,.03,.3,.1,.37,.07,.07,.18,.11,.35,.11h.45v.32h-.48c-.3,0-.51-.06-.63-.18-.12-.12-.18-.32-.18-.62v-1.31h-.64v-.31h.64v-.68h.4Z"/><path class="cls-1" d="M181.47,25.23v-1.49h.4v1.49c0,.22,.04,.38,.11,.48,.08,.1,.2,.15,.36,.15,.19,0,.33-.07,.43-.2,.1-.13,.15-.32,.15-.57v-1.36h.4v2.41h-.4v-.36c-.07,.14-.17,.24-.29,.32s-.26,.11-.43,.11c-.25,0-.43-.08-.55-.24s-.18-.41-.18-.73Z"/><path class="cls-1" d="M185.55,24.04v-1.25h.4v3.35h-.4v-.3c-.07,.12-.15,.21-.26,.27-.11,.06-.24,.09-.38,.09-.29,0-.52-.11-.69-.34-.17-.23-.25-.54-.25-.94s.08-.7,.25-.92c.17-.22,.4-.33,.69-.33,.15,0,.27,.03,.38,.09,.11,.06,.2,.15,.26,.27Zm-1.16,.9c0,.31,.05,.54,.15,.69,.1,.16,.24,.23,.43,.23s.34-.08,.44-.24c.1-.16,.15-.39,.15-.69s-.05-.54-.15-.69c-.1-.16-.25-.24-.44-.24s-.34,.08-.43,.23c-.1,.16-.15,.39-.15,.7Z"/><path class="cls-1" d="M188.77,24.74v.19h-1.72c-.01,.34,.05,.58,.19,.72,.14,.14,.33,.22,.58,.22,.13,0,.26-.02,.4-.06s.28-.1,.44-.18v.39c-.15,.06-.3,.11-.44,.14s-.28,.05-.41,.05c-.38,0-.67-.11-.88-.34s-.32-.53-.32-.93,.1-.69,.31-.92,.48-.34,.83-.34c.31,0,.55,.1,.73,.31,.18,.21,.27,.46,.28,.75Zm-.4-.12c-.02-.17-.08-.31-.18-.43s-.25-.18-.45-.18-.35,.06-.47,.19-.19,.27-.2,.43h1.3Z"/><path class="cls-1" d="M191.27,24.65v1.49h-.4v-1.49c0-.22-.04-.38-.11-.48-.08-.1-.2-.15-.36-.15-.18,0-.33,.07-.43,.2-.1,.13-.15,.32-.15,.57v1.36h-.4v-2.41h.4v.36c.07-.14,.17-.24,.29-.31s.26-.11,.43-.11c.25,0,.43,.08,.55,.24s.18,.41,.18,.73Z"/><path class="cls-1" d="M192.99,23.05v.68h.9v.31h-.9v1.31c0,.18,.03,.3,.1,.37,.07,.07,.18,.11,.35,.11h.45v.32h-.48c-.3,0-.51-.06-.63-.18-.12-.12-.18-.32-.18-.62v-1.31h-.64v-.31h.64v-.68h.4Z"/><path class="cls-1" d="M196.42,23.82v.39c-.11-.07-.23-.12-.34-.15-.11-.03-.23-.05-.35-.05-.18,0-.31,.03-.4,.09-.09,.06-.13,.15-.13,.27,0,.11,.03,.19,.1,.24,.07,.05,.23,.11,.49,.16l.16,.03c.2,.04,.35,.11,.45,.22,.1,.11,.15,.26,.15,.44,0,.24-.08,.43-.25,.56-.17,.13-.4,.2-.71,.2-.12,0-.24-.01-.37-.04-.13-.03-.27-.06-.42-.11v-.41c.15,.08,.29,.13,.42,.17s.26,.06,.38,.06c.18,0,.31-.04,.41-.11,.1-.07,.14-.17,.14-.3,0-.18-.18-.31-.53-.38h-.02s-.15-.03-.15-.03c-.23-.04-.4-.12-.5-.22-.1-.11-.16-.25-.16-.43,0-.23,.08-.41,.23-.54,.16-.13,.38-.19,.67-.19,.13,0,.25,.01,.37,.04,.12,.02,.24,.06,.35,.11Z"/><path class="cls-1" d="M201.94,26.03c-.11,.06-.22,.1-.34,.13-.12,.03-.24,.04-.37,.04-.41,0-.73-.15-.96-.44-.23-.29-.34-.7-.34-1.23s.11-.93,.34-1.23,.55-.44,.96-.44c.13,0,.25,.01,.37,.04,.12,.03,.23,.07,.34,.13v.45c-.11-.09-.22-.15-.34-.2-.12-.05-.24-.07-.37-.07-.28,0-.49,.11-.64,.33s-.21,.55-.21,.99,.07,.77,.21,.99,.35,.33,.64,.33c.13,0,.25-.02,.37-.07s.23-.11,.34-.2v.45Z"/><path class="cls-1" d="M203.61,23.68c.33,0,.59,.11,.77,.33,.18,.22,.27,.53,.27,.94s-.09,.73-.26,.94c-.18,.22-.43,.32-.77,.32s-.59-.11-.77-.32c-.18-.22-.26-.53-.26-.94s.09-.72,.26-.94c.18-.22,.43-.33,.77-.33Zm0,.34c-.2,0-.35,.08-.46,.23-.1,.16-.15,.39-.15,.7s.05,.54,.15,.69c.1,.16,.26,.24,.46,.24s.36-.08,.46-.24c.1-.16,.15-.39,.15-.69s-.05-.54-.15-.7c-.1-.16-.26-.23-.46-.23Z"/><path class="cls-1" d="M206.39,23.98c.05-.1,.11-.18,.19-.23s.17-.07,.27-.07c.19,0,.33,.08,.41,.23,.08,.15,.12,.43,.12,.85v1.4h-.36v-1.38c0-.34-.02-.55-.06-.63-.04-.08-.11-.12-.21-.12-.11,0-.19,.04-.24,.13-.04,.09-.06,.3-.06,.63v1.38h-.36v-1.38c0-.34-.02-.56-.06-.64s-.11-.12-.22-.12-.18,.04-.22,.13c-.04,.09-.06,.3-.06,.63v1.38h-.36v-2.41h.36v.21c.05-.09,.11-.15,.18-.2,.07-.04,.15-.07,.24-.07,.11,0,.2,.03,.27,.08,.07,.05,.13,.13,.17,.23Z"/><path class="cls-1" d="M209.05,23.98c.05-.1,.11-.18,.19-.23s.17-.07,.27-.07c.19,0,.33,.08,.41,.23,.08,.15,.12,.43,.12,.85v1.4h-.36v-1.38c0-.34-.02-.55-.06-.63-.04-.08-.11-.12-.21-.12-.11,0-.19,.04-.24,.13-.04,.09-.06,.3-.06,.63v1.38h-.36v-1.38c0-.34-.02-.56-.06-.64s-.11-.12-.22-.12-.18,.04-.22,.13c-.04,.09-.06,.3-.06,.63v1.38h-.36v-2.41h.36v.21c.05-.09,.11-.15,.18-.2,.07-.04,.15-.07,.24-.07,.11,0,.2,.03,.27,.08,.07,.05,.13,.13,.17,.23Z"/><path class="cls-1" d="M210.93,23.74h1.01v2.09h.79v.31h-1.97v-.31h.79v-1.79h-.62v-.31Zm.62-.94h.4v.5h-.4v-.5Z"/><path class="cls-1" d="M214.23,23.05v.68h.9v.31h-.9v1.31c0,.18,.03,.3,.1,.37,.07,.07,.18,.11,.35,.11h.45v.32h-.48c-.3,0-.51-.06-.63-.18-.12-.12-.18-.32-.18-.62v-1.31h-.64v-.31h.64v-.68h.4Z"/><path class="cls-1" d="M216.88,23.05v.68h.9v.31h-.9v1.31c0,.18,.03,.3,.1,.37,.07,.07,.18,.11,.35,.11h.45v.32h-.48c-.3,0-.51-.06-.63-.18-.12-.12-.18-.32-.18-.62v-1.31h-.64v-.31h.64v-.68h.4Z"/><path class="cls-1" d="M220.62,24.74v.19h-1.72c-.01,.34,.05,.58,.19,.72,.14,.14,.33,.22,.58,.22,.13,0,.26-.02,.4-.06s.28-.1,.44-.18v.39c-.15,.06-.3,.11-.44,.14s-.28,.05-.41,.05c-.38,0-.67-.11-.88-.34s-.32-.53-.32-.93,.1-.69,.31-.92,.48-.34,.83-.34c.31,0,.55,.1,.73,.31,.18,.21,.27,.46,.28,.75Zm-.4-.12c-.02-.17-.08-.31-.18-.43s-.25-.18-.45-.18-.35,.06-.47,.19-.19,.27-.2,.43h1.3Z"/><path class="cls-1" d="M223.28,24.74v.19h-1.72c-.01,.34,.05,.58,.19,.72,.14,.14,.33,.22,.58,.22,.13,0,.26-.02,.4-.06s.28-.1,.44-.18v.39c-.15,.06-.3,.11-.44,.14s-.28,.05-.41,.05c-.38,0-.67-.11-.88-.34s-.32-.53-.32-.93,.1-.69,.31-.92,.48-.34,.83-.34c.31,0,.55,.1,.73,.31,.18,.21,.27,.46,.28,.75Zm-.4-.12c-.02-.17-.08-.31-.18-.43s-.25-.18-.45-.18-.35,.06-.47,.19-.19,.27-.2,.43h1.3Z"/></svg>